<svg width="25" height="25" viewBox="0 0 25 25" fill="none" xmlns="http://www.w3.org/2000/svg">
<path d="M21.1636 4.32862C19.5701 3.59749 17.8614 3.05883 16.0749 2.75032C16.0424 2.74436 16.0099 2.75924 15.9931 2.789C15.7733 3.17985 15.5299 3.68975 15.3595 4.09052C13.4379 3.80285 11.5262 3.80285 9.64408 4.09052C9.47359 3.68084 9.22134 3.17985 9.0006 2.789C8.98384 2.76024 8.95134 2.74536 8.9188 2.75032C7.13324 3.05785 5.42454 3.59651 3.83014 4.32862C3.81634 4.33457 3.80451 4.3445 3.79666 4.35739C0.555616 9.19943 -0.33224 13.9225 0.103313 18.5869C0.105283 18.6097 0.118094 18.6316 0.135831 18.6455C2.27418 20.2158 4.34553 21.1692 6.37842 21.8011C6.41095 21.811 6.44542 21.7991 6.46613 21.7723C6.94701 21.1156 7.37567 20.4232 7.7432 19.695C7.76489 19.6524 7.74419 19.6018 7.69986 19.5849C7.01993 19.327 6.3725 19.0125 5.74972 18.6554C5.70046 18.6266 5.69651 18.5562 5.74183 18.5224C5.87289 18.4242 6.00398 18.322 6.12912 18.2189C6.15176 18.2 6.18331 18.1961 6.20993 18.208C10.3013 20.0759 14.7308 20.0759 18.7739 18.208C18.8005 18.1951 18.8321 18.199 18.8557 18.2179C18.9809 18.3211 19.1119 18.4242 19.244 18.5224C19.2893 18.5562 19.2863 18.6266 19.2371 18.6554C18.6143 19.0194 17.9669 19.327 17.2859 19.5839C17.2416 19.6008 17.2219 19.6524 17.2436 19.695C17.619 20.4221 18.0477 21.1146 18.5197 21.7713C18.5394 21.7991 18.5749 21.811 18.6074 21.8011C20.6501 21.1692 22.7215 20.2158 24.8598 18.6455C24.8786 18.6316 24.8904 18.6107 24.8924 18.5879C25.4136 13.1953 24.0193 8.51098 21.1961 4.35837C21.1892 4.3445 21.1774 4.33457 21.1636 4.32862ZM8.35419 15.7468C7.12239 15.7468 6.10743 14.6159 6.10743 13.227C6.10743 11.8382 7.10271 10.7073 8.35419 10.7073C9.61549 10.7073 10.6206 11.8481 10.6009 13.227C10.6009 14.6159 9.60563 15.7468 8.35419 15.7468ZM16.6612 15.7468C15.4294 15.7468 14.4145 14.6159 14.4145 13.227C14.4145 11.8382 15.4097 10.7073 16.6612 10.7073C17.9225 10.7073 18.9276 11.8481 18.908 13.227C18.908 14.6159 17.9225 15.7468 16.6612 15.7468Z" fill="currentColor"/>
</svg>
