<svg width="25" height="25" viewBox="0 0 25 25" fill="none" xmlns="http://www.w3.org/2000/svg">
<g opacity="0.2" clip-path="url(#clip0_1378_16312)">
<path fill-rule="evenodd" clip-rule="evenodd" d="M12.4995 0.520508C9.53201 0.522047 6.66184 1.57307 4.40219 3.48564C2.14254 5.3982 0.640767 8.0476 0.165394 10.9601C-0.30998 13.8726 0.272042 16.8582 1.8074 19.3832C3.34276 21.9081 5.73133 23.8078 8.546 24.7424C9.16697 24.8576 9.40086 24.4727 9.40086 24.1455C9.40086 23.8183 9.38844 22.8695 9.3843 21.8322C5.9069 22.5834 5.1721 20.3648 5.1721 20.3648C4.60496 18.9241 3.78528 18.5454 3.78528 18.5454C2.65099 17.7757 3.87015 17.7901 3.87015 17.7901C5.12657 17.8786 5.78686 19.0723 5.78686 19.0723C6.90046 20.9719 8.71159 20.4224 9.42363 20.1013C9.5354 19.2966 9.86038 18.7492 10.2185 18.4384C7.44069 18.1255 4.52216 17.0594 4.52216 12.297C4.50494 11.0619 4.96589 9.86744 5.80963 8.9608C5.6813 8.64797 5.25282 7.38429 5.93174 5.66783C5.93174 5.66783 6.98118 5.33442 9.36982 6.9418C11.4186 6.3847 13.5803 6.3847 15.6291 6.9418C18.0157 5.33442 19.0631 5.66783 19.0631 5.66783C19.744 7.38018 19.3156 8.64385 19.1873 8.9608C20.0337 9.86758 20.4956 11.0641 20.4768 12.3011C20.4768 17.0739 17.552 18.1255 14.7701 18.4322C15.2172 18.8191 15.6167 19.5744 15.6167 20.7352C15.6167 22.3982 15.6022 23.7359 15.6022 24.1455C15.6022 24.4769 15.8278 24.8638 16.4612 24.7424C19.2762 23.8076 21.665 21.9077 23.2004 19.3823C24.7357 16.8569 25.3174 13.8708 24.8415 10.9581C24.3656 8.0453 22.8631 5.39588 20.6027 3.48364C18.3423 1.5714 15.4714 0.521072 12.5036 0.520508H12.4995Z" fill="currentColor"/>
<path d="M4.73436 18.3667C4.70745 18.4284 4.6081 18.4469 4.52737 18.4037C4.44665 18.3605 4.38663 18.2802 4.41561 18.2164C4.44458 18.1526 4.54187 18.1361 4.62259 18.1794C4.70332 18.2226 4.76541 18.3049 4.73436 18.3667Z" fill="currentColor"/>
<path d="M5.24168 18.9281C5.19881 18.9496 5.14977 18.9556 5.10295 18.9451C5.05613 18.9346 5.01444 18.9082 4.98501 18.8705C4.90429 18.784 4.88772 18.6647 4.94982 18.6112C5.01191 18.5577 5.1237 18.5824 5.20442 18.6688C5.28515 18.7552 5.30377 18.8746 5.24168 18.9281Z" fill="currentColor"/>
<path d="M5.73341 19.6423C5.65683 19.6958 5.52642 19.6423 5.45397 19.5353C5.43394 19.5161 5.41801 19.493 5.40712 19.4676C5.39624 19.4421 5.39062 19.4147 5.39062 19.3871C5.39062 19.3594 5.39624 19.332 5.40712 19.3066C5.41801 19.2811 5.43394 19.2581 5.45397 19.2389C5.53055 19.1874 5.66096 19.2389 5.73341 19.3439C5.80586 19.4488 5.80793 19.5888 5.73341 19.6423Z" fill="currentColor"/>
<path d="M6.40308 20.3345C6.33477 20.4106 6.19609 20.39 6.08225 20.2871C5.96841 20.1842 5.94149 20.0443 6.0098 19.9702C6.0781 19.8961 6.21679 19.9167 6.33477 20.0175C6.45275 20.1184 6.47552 20.2604 6.40308 20.3345Z" fill="currentColor"/>
<path d="M7.34058 20.7377C7.30953 20.8344 7.16878 20.8776 7.02802 20.8364C6.88727 20.7953 6.79413 20.68 6.82104 20.5812C6.84795 20.4825 6.99077 20.4372 7.13359 20.4825C7.27641 20.5277 7.36749 20.6368 7.34058 20.7377Z" fill="currentColor"/>
<path d="M8.36227 20.8071C8.36227 20.908 8.24636 20.9944 8.09733 20.9965C7.94829 20.9985 7.82617 20.9162 7.82617 20.8154C7.82617 20.7145 7.94208 20.6281 8.09111 20.626C8.24014 20.624 8.36227 20.7042 8.36227 20.8071Z" fill="currentColor"/>
<path d="M9.31531 20.6489C9.33394 20.7498 9.23044 20.8547 9.08141 20.8794C8.93238 20.9041 8.80198 20.8444 8.78335 20.7456C8.76472 20.6469 8.87235 20.5398 9.01725 20.5131C9.16214 20.4863 9.29668 20.5481 9.31531 20.6489Z" fill="currentColor"/>
</g>
<defs>
<clipPath id="clip0_1378_16312">
<rect width="25" height="25" fill="currentColor"/>
</clipPath>
</defs>
</svg>
