<svg width="25" height="25" viewBox="0 0 25 25" fill="none" xmlns="http://www.w3.org/2000/svg">

<path d="M14.1015 12.3202C14.1015 16.248 10.9447 19.4321 7.05087 19.4321C3.15701 19.4321 0 16.2473 0 12.3202C0 8.39309 3.15677 5.20801 7.05087 5.20801C10.945 5.20801 14.1015 8.39237 14.1015 12.3202Z" fill="currentColor"/>
<path d="M21.836 12.3206C21.836 16.0178 20.2576 19.0161 18.3106 19.0161C16.3635 19.0161 14.7852 16.0178 14.7852 12.3206C14.7852 8.62337 16.3633 5.625 18.3104 5.625C20.2574 5.625 21.8358 8.62241 21.8358 12.3206" fill="currentColor"/>
<path d="M24.9991 12.3204C24.9991 15.6322 24.4441 18.3186 23.7592 18.3186C23.0743 18.3186 22.5195 15.633 22.5195 12.3204C22.5195 9.00793 23.0746 6.32227 23.7592 6.32227C24.4438 6.32227 24.9991 9.00769 24.9991 12.3204Z" fill="currentColor"/>

</svg>
