<svg width="25" height="25" viewBox="0 0 25 25" fill="none" xmlns="http://www.w3.org/2000/svg">

<path fill-rule="evenodd" clip-rule="evenodd" d="M25 12.5C25 19.4036 19.4036 25 12.5 25C5.59644 25 0 19.4036 0 12.5C0 5.59644 5.59644 0 12.5 0C19.4036 0 25 5.59644 25 12.5ZM19.0059 10.6725C20.0146 10.6725 20.8333 11.4912 20.8333 12.5C20.8333 13.2456 20.3801 13.8889 19.7807 14.1813C19.8099 14.3567 19.8246 14.5321 19.8246 14.7222C19.8246 17.5292 16.5643 19.7953 12.5292 19.7953C8.49416 19.7953 5.23392 17.5292 5.23392 14.7222C5.23392 14.5321 5.24854 14.3421 5.27778 14.1666C4.63451 13.8742 4.19591 13.2456 4.19591 12.5C4.19591 11.4912 5.01463 10.6725 6.0234 10.6725C6.50585 10.6725 6.95907 10.8772 7.28071 11.1842C8.53802 10.2631 10.2778 9.69296 12.2222 9.63448L13.1433 5.27775C13.1725 5.19003 13.2164 5.11693 13.2895 5.07307C13.3626 5.02921 13.4503 5.0146 13.538 5.02922L16.5643 5.67249C16.769 5.23389 17.2076 4.94149 17.7193 4.94149C18.4357 4.94149 19.0205 5.52629 19.0205 6.24267C19.0205 6.95904 18.4357 7.54384 17.7193 7.54384C17.0176 7.54384 16.4474 6.98828 16.4181 6.30114L13.7135 5.73097L12.8801 9.63448C14.7807 9.70758 16.5059 10.2924 17.7485 11.1842C18.0702 10.8625 18.5088 10.6725 19.0059 10.6725ZM9.63451 12.5C8.91814 12.5 8.33334 13.0848 8.33334 13.8011C8.33334 14.5175 8.91814 15.1023 9.63451 15.1023C10.3509 15.1023 10.9357 14.5175 10.9357 13.8011C10.9357 13.0848 10.3509 12.5 9.63451 12.5ZM12.5146 18.1871C13.0117 18.1871 14.7076 18.1286 15.5994 17.2368C15.731 17.1052 15.731 16.9006 15.6287 16.7544C15.4971 16.6228 15.2778 16.6228 15.1462 16.7544C14.576 17.3099 13.3918 17.5146 12.5292 17.5146C11.6667 17.5146 10.4678 17.3099 9.91229 16.7544C9.78071 16.6228 9.56141 16.6228 9.42983 16.7544C9.29825 16.8859 9.29825 17.1052 9.42983 17.2368C10.307 18.114 12.0176 18.1871 12.5146 18.1871ZM14.0643 13.8011C14.0643 14.5175 14.6491 15.1023 15.3655 15.1023C16.0819 15.1023 16.6667 14.5175 16.6667 13.8011C16.6667 13.0848 16.0819 12.5 15.3655 12.5C14.6491 12.5 14.0643 13.0848 14.0643 13.8011Z" fill="currentColor"/>

</svg>
