<svg width="25" height="25" viewBox="0 0 25 25" fill="none" xmlns="http://www.w3.org/2000/svg">

<path fill-rule="evenodd" clip-rule="evenodd" d="M25 12.5C25 19.4036 19.4036 25 12.5 25C5.59644 25 0 19.4036 0 12.5C0 5.59644 5.59644 0 12.5 0C19.4036 0 25 5.59644 25 12.5ZM12.9479 9.22805C11.7321 9.73375 9.30223 10.7804 5.65822 12.368C5.06649 12.6034 4.75652 12.8336 4.7283 13.0587C4.68061 13.4391 5.15699 13.5889 5.8057 13.7928C5.89394 13.8206 5.98537 13.8493 6.0791 13.8798C6.71733 14.0873 7.57586 14.33 8.02217 14.3396C8.42702 14.3484 8.87888 14.1815 9.37775 13.8389C12.7825 11.5406 14.54 10.379 14.6503 10.3539C14.7282 10.3363 14.836 10.314 14.9091 10.379C14.9822 10.444 14.975 10.567 14.9673 10.6C14.9201 10.8012 13.0501 12.5397 12.0824 13.4394C11.7807 13.7198 11.5667 13.9188 11.523 13.9642C11.425 14.066 11.3251 14.1623 11.2291 14.2548C10.6362 14.8264 10.1916 15.255 11.2538 15.955C11.7642 16.2914 12.1726 16.5695 12.5801 16.847C13.0252 17.1501 13.469 17.4523 14.0433 17.8288C14.1897 17.9247 14.3294 18.0244 14.4655 18.1214C14.9834 18.4906 15.4487 18.8223 16.0235 18.7694C16.3575 18.7387 16.7026 18.4246 16.8778 17.4879C17.2919 15.2741 18.1059 10.4776 18.294 8.50101C18.3105 8.32784 18.2897 8.10622 18.2731 8.00893C18.2564 7.91164 18.2216 7.77303 18.0952 7.67042C17.9454 7.54889 17.7142 7.52327 17.6108 7.52509C17.1406 7.53337 16.4193 7.78418 12.9479 9.22805Z" fill="currentColor"/>

</svg>
