<svg width="25" height="21" viewBox="0 0 25 21" fill="none" xmlns="http://www.w3.org/2000/svg">
<path d="M7.86475 20.656C17.2964 20.656 22.4565 12.8401 22.4565 6.06422C22.4565 6.00981 22.4562 5.9551 22.4556 5.90024C22.4522 5.58799 22.5961 5.29229 22.8401 5.09736C23.3353 4.70165 23.793 4.2619 24.2076 3.7838C24.456 3.49733 24.1376 3.08967 23.7742 3.19784V3.19784C23.3838 3.31405 23.122 2.72496 23.3813 2.41084C23.5092 2.25597 23.628 2.09368 23.7371 1.92477C23.991 1.53148 23.5445 1.13775 23.1142 1.32206C22.6386 1.52576 22.148 1.69351 21.6465 1.82373C21.2815 1.91852 20.9042 1.78513 20.6152 1.54283C19.9114 0.952826 19.0591 0.559827 18.1455 0.410256C17.0316 0.227896 15.8887 0.417547 14.8935 0.949887C13.8982 1.48223 13.106 2.3276 12.6394 3.35532V3.35532C11.9439 4.8872 10.6259 6.55021 9.00923 6.08446C8.13165 5.83162 7.27742 5.49614 6.45831 5.08114C5.79248 4.74379 5.15528 4.35665 4.55183 3.92382C3.03317 2.83457 0.760197 3.19595 1.18232 5.01655V5.01655C1.35245 5.75031 1.68016 6.43079 2.13543 7.01457C2.42526 7.3862 2.17142 7.97684 1.72881 7.81497C1.50019 7.73137 1.27719 7.63138 1.06159 7.51552C1.03648 7.50203 1.00586 7.52009 1.00586 7.5486V7.5486C1.00513 8.73328 1.41469 9.88165 2.16491 10.7985C2.55972 11.281 3.03605 11.6837 3.56803 11.9911C3.92899 12.1996 3.88686 12.7744 3.47074 12.7495V12.7495C3.17057 12.7315 2.92414 13.0152 3.05257 13.2871C3.41119 14.0463 3.95201 14.7093 4.63101 15.2147V15.2147C5.4883 15.8528 5.83078 17.4091 4.8292 17.7817C3.68413 18.2078 2.46435 18.4295 1.22559 18.4275V18.4275C0.927098 18.427 0.79697 18.8319 1.0609 18.9713C3.15219 20.076 5.48728 20.6573 7.86475 20.656Z" fill="currentColor"/>
</svg>
