<svg xmlns="http://www.w3.org/2000/svg">
  <symbol id="anchor" width="22" height="22" viewBox="0 0 22 22" fill="none">
    <path d="M11 7C12.6569 7 14 5.65685 14 4C14 2.34315 12.6569 1 11 1C9.34315 1 8 2.34315 8 4C8 5.65685 9.34315 7 11 7Z" stroke="currentColor" stroke-width="2" stroke-linecap="round" stroke-linejoin="round"/>
    <path d="M11 21V7" stroke="currentColor" stroke-width="2" stroke-linecap="round" stroke-linejoin="round"/>
    <path d="M4 11H1C1 13.6522 2.05357 16.1957 3.92893 18.0711C5.8043 19.9464 8.34784 21 11 21C13.6522 21 16.1957 19.9464 18.0711 18.0711C19.9464 16.1957 21 13.6522 21 11H18" stroke="currentColor" stroke-width="2" stroke-linecap="round" stroke-linejoin="round"/>
  </symbol>
  <symbol id="battery" width="24" height="14" viewBox="0 0 24 14" fill="none">
    <path d="M17 1H3C1.89543 1 1 1.89543 1 3V11C1 12.1046 1.89543 13 3 13H17C18.1046 13 19 12.1046 19 11V3C19 1.89543 18.1046 1 17 1Z" stroke="currentColor" stroke-width="2" stroke-linecap="round" stroke-linejoin="round"/>
    <path d="M23 8V6" stroke="currentColor" stroke-width="2" stroke-linecap="round" stroke-linejoin="round"/>
  </symbol>
  <symbol id="moon" width="14" height="15" viewBox="0 0 14 15">
    <path d="M13.0797 9.02695C12.0385 9.31955 10.9383 9.32914 9.89219 9.05473C8.84606 8.78032 7.89165 8.23181 7.12701 7.46551C6.36236 6.69922 5.81501 5.74276 5.54119 4.69438C5.26737 3.64599 5.27694 2.54346 5.56892 1.5C4.54237 1.78634 3.6086 2.33721 2.86062 3.09776C2.11263 3.8583 1.57653 4.80196 1.30572 5.83476C1.03491 6.86755 1.03884 7.95343 1.31711 8.98423C1.59539 10.015 2.1383 10.9548 2.89176 11.7099C3.64523 12.465 4.58296 13.009 5.61155 13.2879C6.64014 13.5668 7.72368 13.5707 8.75426 13.2993C9.78484 13.0279 10.7265 12.4907 11.4854 11.7411C12.2443 10.9915 12.794 10.0557 13.0797 9.02695Z" stroke="currentColor" stroke-width="1.5" stroke-linecap="round" stroke-linejoin="round"/>
  </symbol>
  <symbol id="list" width="19" height="13" viewBox="0 0 19 13" fill="none" xmlns="http://www.w3.org/2000/svg">
    <path d="M5.58325 1H17.4999" stroke="currentColor" stroke-width="2" stroke-linecap="round" stroke-linejoin="round"/>
    <path d="M5.58325 6.5H17.4999" stroke="currentColor" stroke-width="2" stroke-linecap="round" stroke-linejoin="round"/>
    <path d="M5.58325 12H17.4999" stroke="currentColor" stroke-width="2" stroke-linecap="round" stroke-linejoin="round"/>
    <path d="M1 1H1.00833" stroke="currentColor" stroke-width="2" stroke-linecap="round" stroke-linejoin="round"/>
    <path d="M1 6.5H1.00833" stroke="currentColor" stroke-width="2" stroke-linecap="round" stroke-linejoin="round"/>
    <path d="M1 12H1.00833" stroke="currentColor" stroke-width="2" stroke-linecap="round" stroke-linejoin="round"/>
  </symbol>
  <symbol id="chrome" width="22" height="22" viewBox="0 0 22 22" fill="none">
    <path d="M11 21C16.5228 21 21 16.5228 21 11C21 5.47715 16.5228 1 11 1C5.47715 1 1 5.47715 1 11C1 16.5228 5.47715 21 11 21Z" stroke="currentColor" stroke-width="2" stroke-linecap="round" stroke-linejoin="round"/>
    <path d="M11 15C13.2091 15 15 13.2091 15 11C15 8.79086 13.2091 7 11 7C8.79086 7 7 8.79086 7 11C7 13.2091 8.79086 15 11 15Z" stroke="currentColor" stroke-width="2" stroke-linecap="round" stroke-linejoin="round"/>
    <path d="M20.17 7H11" stroke="currentColor" stroke-width="2" stroke-linecap="round" stroke-linejoin="round"/>
    <path d="M2.95312 5.05957L7.54313 12.9996" stroke="currentColor" stroke-width="2" stroke-linecap="round" stroke-linejoin="round"/>
    <path d="M9.88281 20.94L14.4628 13" stroke="currentColor" stroke-width="2" stroke-linecap="round" stroke-linejoin="round"/>
  </symbol>
  <symbol id="refresh" width="21" height="17" viewBox="0 0 21 17" fill="none" xmlns="http://www.w3.org/2000/svg">
    <path d="M1 1.83154V6.83286H6.00132" stroke="currentColor" stroke-width="2" stroke-linecap="round" stroke-linejoin="round"/>
    <path d="M19.3382 15.1683V10.167H14.3369" stroke="currentColor" stroke-width="2" stroke-linecap="round" stroke-linejoin="round"/>
    <path d="M17.2459 5.99934C16.8232 4.80468 16.1047 3.73658 15.1575 2.89471C14.2103 2.05283 13.0653 1.46462 11.8293 1.18496C10.5933 0.905296 9.30655 0.943298 8.0892 1.29542C6.87185 1.64754 5.76354 2.3023 4.86768 3.19861L1 6.8329M19.3382 10.1671L15.4705 13.8014C14.5746 14.6977 13.4663 15.3525 12.2489 15.7046C11.0316 16.0567 9.74489 16.0947 8.50888 15.815C7.27287 15.5354 6.12785 14.9472 5.18065 14.1053C4.23346 13.2634 3.51497 12.1953 3.09222 11.0007" stroke="currentColor" stroke-width="2" stroke-linecap="round" stroke-linejoin="round"/>
  </symbol>
  <symbol id="arrow-right" width="14" height="14" viewBox="0 0 14 14" fill="none">
    <path d="M1 7L13 7" stroke="currentColor" stroke-width="2" stroke-linecap="round" stroke-linejoin="round"/>
    <path d="M7 1L13 7L7 13" stroke="currentColor" stroke-width="2" stroke-linecap="round" stroke-linejoin="round"/>
  </symbol>
  <symbol id="warning" width="22" height="19" viewBox="0 0 22 19" fill="none">
    <path d="M9.65273 2.53158L2.16657 15.0291C2.01223 15.2964 1.93056 15.5995 1.92969 15.9081C1.92883 16.2168 2.0088 16.5203 2.16165 16.7884C2.3145 17.0566 2.53489 17.2801 2.80092 17.4366C3.06694 17.5931 3.36931 17.6773 3.67795 17.6807H18.6503C18.9589 17.6773 19.2613 17.5931 19.5273 17.4366C19.7933 17.2801 20.0137 17.0566 20.1666 16.7884C20.3194 16.5203 20.3994 16.2168 20.3985 15.9081C20.3977 15.5995 20.316 15.2964 20.1616 15.0291L12.6755 2.53158C12.5179 2.27182 12.2961 2.05706 12.0313 1.90801C11.7666 1.75897 11.4679 1.68066 11.1641 1.68066C10.8603 1.68066 10.5616 1.75897 10.2969 1.90801C10.0321 2.05706 9.8103 2.27182 9.65273 2.53158V2.53158Z" stroke="currentColor" stroke-width="2" stroke-linecap="round" stroke-linejoin="round"/>
    <path d="M11.1641 7.07422V10.6096" stroke="currentColor" stroke-width="2" stroke-linecap="round" stroke-linejoin="round"/>
    <path d="M11.1641 14.145H11.1729" stroke="currentColor" stroke-width="2" stroke-linecap="round" stroke-linejoin="round"/>
  </symbol>
  <symbol id="close" width="12" height="12" viewBox="0 0 12 12" fill="none">
    <path d="M11 1L1 11" stroke="currentColor" stroke-width="2" stroke-linecap="round" stroke-linejoin="round"/>
    <path d="M1 1L11 11" stroke="currentColor" stroke-width="2" stroke-linecap="round" stroke-linejoin="round"/>
  </symbol>
  <symbol id="suitcase" width="18" height="16" viewBox="0 0 18 16" fill="none">
    <path d="M15 4.11133H2.55556C1.69645 4.11133 1 4.80777 1 5.66688V13.4447C1 14.3038 1.69645 15.0002 2.55556 15.0002H15C15.8591 15.0002 16.5556 14.3038 16.5556 13.4447V5.66688C16.5556 4.80777 15.8591 4.11133 15 4.11133Z" stroke="currentColor" stroke-width="2" stroke-linecap="round" stroke-linejoin="round"/>
    <path d="M11.8902 15V2.55556C11.8902 2.143 11.7263 1.74733 11.4346 1.45561C11.1429 1.16389 10.7472 1 10.3346 1H7.22352C6.81097 1 6.4153 1.16389 6.12358 1.45561C5.83186 1.74733 5.66797 2.143 5.66797 2.55556V15" stroke="currentColor" stroke-width="2" stroke-linecap="round" stroke-linejoin="round"/>
  </symbol>
  <symbol id="stack" width="17" height="17" viewBox="0 0 17 17" fill="none">
    <path d="M8.5 1L1 4.75L8.5 8.5L16 4.75L8.5 1Z" stroke="currentColor" stroke-width="2" stroke-linecap="round" stroke-linejoin="round"/>
    <path d="M1 12.25L8.5 16L16 12.25" stroke="currentColor" stroke-width="2" stroke-linecap="round" stroke-linejoin="round"/>
    <path d="M1 8.5L8.5 12.25L16 8.5" stroke="currentColor" stroke-width="2" stroke-linecap="round" stroke-linejoin="round"/>
  </symbol>
  <symbol id="like" width="18" height="18" viewBox="0 0 18 18" fill="none">
    <path d="M4.99997 16.9999H2.59999C2.17565 16.9999 1.76868 16.8313 1.46863 16.5313C1.16857 16.2312 1 15.8243 1 15.3999V9.79994C1 9.3756 1.16857 8.96864 1.46863 8.66858C1.76868 8.36852 2.17565 8.19995 2.59999 8.19995H4.99997M10.5999 6.59996V3.39998C10.5999 2.76347 10.3471 2.15302 9.897 1.70294C9.44692 1.25285 8.83647 1 8.19995 1L4.99997 8.19995V16.9999H14.0239C14.4098 17.0043 14.7842 16.869 15.0782 16.6191C15.3723 16.3692 15.566 16.0214 15.6239 15.6399L16.7279 8.43995C16.7627 8.21064 16.7472 7.9765 16.6826 7.75376C16.6179 7.53102 16.5056 7.325 16.3534 7.14997C16.2012 6.97495 16.0128 6.83511 15.8012 6.74014C15.5896 6.64517 15.3598 6.59734 15.1279 6.59996H10.5999Z" stroke="currentColor" stroke-width="2" stroke-linecap="round" stroke-linejoin="round"/>
  </symbol>
  <symbol id="swap" width="21" height="16" viewBox="0 0 21 16" fill="none">
    <path d="M10.8008 6.07715L15.0434 1.83451L19.2861 6.07715" stroke="currentColor" stroke-width="2" stroke-linecap="round" stroke-linejoin="round"/>
    <path d="M10.3564 10.749L6.11373 14.9917L1.87109 10.749" stroke="currentColor" stroke-width="2" stroke-linecap="round" stroke-linejoin="round"/>
    <path d="M6.11381 14.9917L6.11381 5.09224" stroke="currentColor" stroke-width="2" stroke-linecap="round" stroke-linejoin="round"/>
    <path d="M15.0435 11.7339L15.0435 1.83443" stroke="currentColor" stroke-width="2" stroke-linecap="round" stroke-linejoin="round"/>
  </symbol>
  <symbol id="profile" width="15" height="17" viewBox="0 0 15 17" fill="none">
    <path d="M14 15.625V14C14 13.138 13.6576 12.3114 13.0481 11.7019C12.4386 11.0924 11.612 10.75 10.75 10.75H4.25C3.38805 10.75 2.5614 11.0924 1.9519 11.7019C1.34241 12.3114 1 13.138 1 14V15.625" stroke="currentColor" stroke-width="2" stroke-linecap="round" stroke-linejoin="round"/>
    <path d="M7.5 7.5C9.29493 7.5 10.75 6.04493 10.75 4.25C10.75 2.45507 9.29493 1 7.5 1C5.70507 1 4.25 2.45507 4.25 4.25C4.25 6.04493 5.70507 7.5 7.5 7.5Z" stroke="currentColor" stroke-width="2" stroke-linecap="round" stroke-linejoin="round"/>
  </symbol>
  <symbol id="search" width="13" height="13" viewBox="0 0 13 13" fill="none">
    <path d="M5.60804 10.2161C8.15299 10.2161 10.2161 8.15299 10.2161 5.60804C10.2161 3.06309 8.15299 1 5.60804 1C3.06309 1 1 3.06309 1 5.60804C1 8.15299 3.06309 10.2161 5.60804 10.2161Z" stroke="currentColor" stroke-width="1.5" stroke-linecap="round" stroke-linejoin="round"/>
    <path d="M11.365 11.3679L8.85938 8.8623" stroke="currentColor" stroke-width="1.5" stroke-linecap="round" stroke-linejoin="round"/>
  </symbol>
  <symbol id="vertical-dots" width="4" height="16" viewBox="0 0 4 16" fill="none">
    <path d="M1.875 8.875C2.35825 8.875 2.75 8.48325 2.75 8C2.75 7.51675 2.35825 7.125 1.875 7.125C1.39175 7.125 1 7.51675 1 8C1 8.48325 1.39175 8.875 1.875 8.875Z" stroke="currentColor" stroke-width="2" stroke-linecap="round" stroke-linejoin="round"/>
    <path d="M1.875 2.75C2.35825 2.75 2.75 2.35825 2.75 1.875C2.75 1.39175 2.35825 1 1.875 1C1.39175 1 1 1.39175 1 1.875C1 2.35825 1.39175 2.75 1.875 2.75Z" stroke="currentColor" stroke-width="2" stroke-linecap="round" stroke-linejoin="round"/>
    <path d="M1.875 15C2.35825 15 2.75 14.6082 2.75 14.125C2.75 13.6418 2.35825 13.25 1.875 13.25C1.39175 13.25 1 13.6418 1 14.125C1 14.6082 1.39175 15 1.875 15Z" stroke="currentColor" stroke-width="2" stroke-linecap="round" stroke-linejoin="round"/>
  </symbol>
  <symbol id="info" width="15" height="15" viewBox="0 0 15 15" fill="none">
    <path d="M7.5 14C11.0899 14 14 11.0899 14 7.5C14 3.91015 11.0899 1 7.5 1C3.91015 1 1 3.91015 1 7.5C1 11.0899 3.91015 14 7.5 14Z" stroke="currentColor" stroke-width="1.5" stroke-linecap="round" stroke-linejoin="round"/>
    <path d="M7.5 10.1V7.5" stroke="currentColor" stroke-width="1.5" stroke-linecap="round" stroke-linejoin="round"/>
    <path d="M7.5 4.90039H7.5065" stroke="currentColor" stroke-width="1.5" stroke-linecap="round" stroke-linejoin="round"/>
  </symbol>
  <symbol id="check" width="70" height="70" viewBox="0 0 70 70" fill="none">
    <path d="M67 32.0743V35.0183C66.9961 41.9189 64.7616 48.6333 60.6299 54.1601C56.4981 59.687 50.6905 63.7302 44.0731 65.6868C37.4558 67.6433 30.3832 67.4084 23.9103 65.017C17.4374 62.6256 11.9109 58.2058 8.15507 52.4169C4.39925 46.628 2.61533 39.7801 3.06937 32.8945C3.5234 26.0089 6.19106 19.4546 10.6745 14.2089C15.1579 8.96334 21.2169 5.30754 27.9478 3.78678C34.6787 2.26603 41.7208 2.96179 48.024 5.77032" stroke="currentColor" stroke-width="6" stroke-linecap="round" stroke-linejoin="round"/>
    <path d="M66.9984 9.41895L34.9984 41.4509L25.3984 31.8509" stroke="currentColor" stroke-width="6" stroke-linecap="round" stroke-linejoin="round"/>
  </symbol>
  <symbol id="keyboard-arrow-down" width="10" height="6" viewBox="0 0 10 6" fill="none">
    <path d="M1 1L5 5L9 1" stroke="currentColor" stroke-width="2" stroke-linecap="round" stroke-linejoin="round"/>
  </symbol>
  <symbol id="arrow-up" width="14" height="14" viewBox="0 0 14 14" fill="none" xmlns="http://www.w3.org/2000/svg">
    <path d="M7 13L7 1" stroke="#F1F0F3" stroke-width="2" stroke-linecap="round" stroke-linejoin="round"/>
    <path d="M1 7L7 1L13 7" stroke="#F1F0F3" stroke-width="2" stroke-linecap="round" stroke-linejoin="round"/>
  </symbol>
  <symbol id="attachment" width="24" height="12" viewBox="0 0 24 12" fill="none">
    <path d="M15 1H18C18.6566 1 19.3068 1.12933 19.9134 1.3806C20.52 1.63188 21.0712 2.00017 21.5355 2.46447C21.9998 2.92876 22.3681 3.47996 22.6194 4.08658C22.8707 4.69321 23 5.34339 23 6C23 6.65661 22.8707 7.30679 22.6194 7.91342C22.3681 8.52004 21.9998 9.07124 21.5355 9.53553C21.0712 9.99983 20.52 10.3681 19.9134 10.6194C19.3068 10.8707 18.6566 11 18 11H15M9 11H6C5.34339 11 4.69321 10.8707 4.08658 10.6194C3.47995 10.3681 2.92876 9.99983 2.46447 9.53553C1.52678 8.59785 1 7.32608 1 6C1 4.67392 1.52678 3.40215 2.46447 2.46447C3.40215 1.52678 4.67392 1 6 1H9" stroke="currentColor" stroke-width="2" stroke-linecap="round" stroke-linejoin="round"/>
    <path d="M8 6H16" stroke="currentColor" stroke-width="2" stroke-linecap="round" stroke-linejoin="round"/>
  </symbol>
  <symbol id="check-outlined" width="20" height="20" viewBox="0 0 20 20" fill="none">
    <circle cx="10" cy="10" r="9" stroke="currentColor" stroke-width="2"/>
    <path d="M7.5 10L9.5 12L13.1 8" stroke="currentColor" stroke-width="2" stroke-linecap="round" stroke-linejoin="round"/>
  </symbol>
  <symbol id="menu" width="20" height="14" viewBox="0 0 20 14" fill="none">
    <path d="M1 7H19" stroke="currentColor" stroke-width="2" stroke-linecap="round" stroke-linejoin="round"/>
    <path d="M1 1H19" stroke="currentColor" stroke-width="2" stroke-linecap="round" stroke-linejoin="round"/>
    <path d="M1 13H19" stroke="currentColor" stroke-width="2" stroke-linecap="round" stroke-linejoin="round"/>
  </symbol>
  <symbol id="error-outlined" width="70" height="70" viewBox="0 0 70 70" fill="none">
    <circle cx="35" cy="35" r="32" stroke="currentColor" stroke-width="6"/>
    <path d="M47 23L23 47" stroke="currentColor" stroke-width="6" stroke-linecap="round" stroke-linejoin="round"/>
    <path d="M23 23L47 47" stroke="currentColor" stroke-width="6" stroke-linecap="round" stroke-linejoin="round"/>
  </symbol>
  <symbol id="3d-cube" width="19" height="19" viewBox="0 0 19 19" fill="none">
    <path d="M9.5 1L18 6.525V12.475L9.5 18L1 12.475V6.525L9.5 1Z" stroke="currentColor" stroke-width="2" stroke-linecap="round" stroke-linejoin="round"/>
    <path d="M9.5 17.9996V12.4746" stroke="currentColor" stroke-width="2" stroke-linecap="round" stroke-linejoin="round"/>
    <path d="M18 6.52539L9.5 12.4754L1 6.52539" stroke="currentColor" stroke-width="2" stroke-linecap="round" stroke-linejoin="round"/>
    <path d="M1 12.4754L9.5 6.52539L18 12.4754" stroke="currentColor" stroke-width="2" stroke-linecap="round" stroke-linejoin="round"/>
    <path d="M9.5 1V6.525" stroke="currentColor" stroke-width="2" stroke-linecap="round" stroke-linejoin="round"/>
  </symbol>
  <symbol id="external" width="10" height="10" viewBox="0 0 10 10" fill="none">
    <path d="M7.66667 5.4451V8.11176C7.66667 8.34751 7.57302 8.5736 7.40632 8.7403C7.23962 8.907 7.01353 9.00065 6.77778 9.00065H1.88889C1.65314 9.00065 1.42705 8.907 1.26035 8.7403C1.09365 8.5736 1 8.34751 1 8.11176V3.22287C1 2.98713 1.09365 2.76103 1.26035 2.59433C1.42705 2.42763 1.65314 2.33398 1.88889 2.33398H4.55556" stroke="currentColor" stroke-linecap="round" stroke-linejoin="round"/>
    <path d="M6.33203 1H8.9987V3.66667" stroke="currentColor" stroke-linecap="round" stroke-linejoin="round"/>
    <path d="M4.11328 5.88889L9.00217 1" stroke="currentColor" stroke-linecap="round" stroke-linejoin="round"/>
  </symbol>
  <symbol id="stats" width="20" height="12" viewBox="0 0 20 12" fill="none">
    <path d="M19 1L11.2273 8.77273L7.13636 4.68182L1 10.8182" stroke="currentColor" stroke-width="2" stroke-linecap="round" stroke-linejoin="round"/>
    <path d="M14.0898 1H18.9989V5.90909" stroke="currentColor" stroke-width="2" stroke-linecap="round" stroke-linejoin="round"/>
  </symbol>
  <symbol id="reload" width="17" height="14" viewBox="0 0 17 14" fill="none">
    <path d="M1.92969 1.92773V5.59537H5.59732" stroke="currentColor" stroke-width="2" stroke-linecap="round" stroke-linejoin="round"/>
    <path d="M15.3786 11.7077V8.04004H11.7109" stroke="currentColor" stroke-width="2" stroke-linecap="round" stroke-linejoin="round"/>
    <path d="M13.8434 4.98357C13.5334 4.10748 13.0065 3.32421 12.3119 2.70684C11.6172 2.08946 10.7776 1.65811 9.87115 1.45302C8.96475 1.24793 8.02116 1.2758 7.12844 1.53402C6.23571 1.79224 5.42295 2.2724 4.76599 2.92969L1.92969 5.59484M15.3777 8.03993L12.5414 10.7051C11.8844 11.3624 11.0716 11.8425 10.1789 12.1007C9.28619 12.359 8.3426 12.3868 7.4362 12.1817C6.52979 11.9767 5.69011 11.5453 4.9955 10.9279C4.30089 10.3106 3.774 9.52728 3.46398 8.6512" stroke="currentColor" stroke-width="2" stroke-linecap="round" stroke-linejoin="round"/>
  </symbol>
  <symbol id="phone" width="18" height="25" viewBox="0 0 18 25" fill="none">
    <path d="M14.5203 1.12402H3.52031C2.30529 1.12402 1.32031 2.109 1.32031 3.32402V20.924C1.32031 22.139 2.30529 23.124 3.52031 23.124H14.5203C15.7353 23.124 16.7203 22.139 16.7203 20.924V3.32402C16.7203 2.109 15.7353 1.12402 14.5203 1.12402Z" stroke="currentColor" stroke-width="2" stroke-linecap="round" stroke-linejoin="round"/>
    <path d="M9.02344 18.7236H9.03444" stroke="currentColor" stroke-width="2" stroke-linecap="round" stroke-linejoin="round"/>
  </symbol>
  <symbol id="assets" width="17" height="18" viewBox="0 0 17 18" fill="none">
    <path d="M8.2 5.8C12.1764 5.8 15.4 4.72548 15.4 3.4C15.4 2.07452 12.1764 1 8.2 1C4.22355 1 1 2.07452 1 3.4C1 4.72548 4.22355 5.8 8.2 5.8Z" stroke="currentColor" stroke-width="2" stroke-linecap="round" stroke-linejoin="round"/>
    <path d="M15.4 9C15.4 10.328 12.2 11.4 8.2 11.4C4.2 11.4 1 10.328 1 9" stroke="currentColor" stroke-width="2" stroke-linecap="round" stroke-linejoin="round"/>
    <path d="M1 3.40039V14.6004C1 15.9284 4.2 17.0004 8.2 17.0004C12.2 17.0004 15.4 15.9284 15.4 14.6004V3.40039" stroke="currentColor" stroke-width="2" stroke-linecap="round" stroke-linejoin="round"/>
  </symbol>
  <symbol id="world" width="18" height="18" viewBox="0 0 18 18" fill="none">
    <path d="M9 17C13.4183 17 17 13.4183 17 9C17 4.58172 13.4183 1 9 1C4.58172 1 1 4.58172 1 9C1 13.4183 4.58172 17 9 17Z" stroke="currentColor" stroke-width="2" stroke-linecap="round" stroke-linejoin="round"/>
    <path d="M1 9H17" stroke="currentColor" stroke-width="2" stroke-linecap="round" stroke-linejoin="round"/>
    <path d="M8.99687 1C10.9979 3.19068 12.1351 6.03363 12.1969 9C12.1351 11.9664 10.9979 14.8093 8.99687 17C6.99585 14.8093 5.85867 11.9664 5.79688 9C5.85867 6.03363 6.99585 3.19068 8.99687 1V1Z" stroke="currentColor" stroke-width="2" stroke-linecap="round" stroke-linejoin="round"/>
  </symbol>
  <symbol id="copy" width="18" height="18" viewBox="0 0 18 18" fill="none">
    <path d="M3 6.75H9.75C10.5784 6.75 11.25 7.42157 11.25 8.25V15C11.25 15.8284 10.5784 16.5 9.75 16.5H3C2.17157 16.5 1.5 15.8284 1.5 15V8.25C1.5 7.42157 2.17157 6.75 3 6.75Z" stroke="currentColor" stroke-width="2" stroke-linecap="round" stroke-linejoin="round"/>
    <path d="M14.25 11.25H15C15.3978 11.25 15.7794 11.092 16.0607 10.8107C16.342 10.5294 16.5 10.1478 16.5 9.75V3C16.5 2.60218 16.342 2.22064 16.0607 1.93934C15.7794 1.65804 15.3978 1.5 15 1.5H8.25C7.85218 1.5 7.47064 1.65804 7.18934 1.93934C6.90804 2.22064 6.75 2.60218 6.75 3V3.75" stroke="currentColor" stroke-width="2" stroke-linecap="round" stroke-linejoin="round"/>
  </symbol>
  <symbol id="setting" width="20" height="20" viewBox="0 0 20 20" fill="none">
    <path d="M10.0004 12.4545C11.3561 12.4545 12.455 11.3556 12.455 9.99996C12.455 8.64435 11.3561 7.54541 10.0004 7.54541C8.64484 7.54541 7.5459 8.64435 7.5459 9.99996C7.5459 11.3556 8.64484 12.4545 10.0004 12.4545Z" stroke="currentColor" stroke-width="2" stroke-linecap="round" stroke-linejoin="round"/>
    <path d="M16.0545 12.4545C15.9456 12.7013 15.9131 12.9751 15.9613 13.2405C16.0094 13.5059 16.1359 13.7508 16.3245 13.9436L16.3736 13.9927C16.5258 14.1447 16.6465 14.3252 16.7288 14.5238C16.8112 14.7225 16.8536 14.9354 16.8536 15.1505C16.8536 15.3655 16.8112 15.5784 16.7288 15.7771C16.6465 15.9757 16.5258 16.1562 16.3736 16.3082C16.2217 16.4603 16.0412 16.581 15.8425 16.6634C15.6439 16.7457 15.431 16.7881 15.2159 16.7881C15.0009 16.7881 14.7879 16.7457 14.5893 16.6634C14.3906 16.581 14.2102 16.4603 14.0582 16.3082L14.0091 16.2591C13.8163 16.0705 13.5714 15.9439 13.3059 15.8958C13.0405 15.8477 12.7668 15.8802 12.52 15.9891C12.278 16.0928 12.0716 16.265 11.9263 16.4845C11.7809 16.704 11.7029 16.9613 11.7018 17.2245V17.3636C11.7018 17.7976 11.5294 18.2138 11.2225 18.5207C10.9157 18.8276 10.4994 19 10.0655 19C9.63146 19 9.21525 18.8276 8.90837 18.5207C8.60149 18.2138 8.42909 17.7976 8.42909 17.3636V17.29C8.42276 17.0192 8.3351 16.7565 8.17751 16.5362C8.01992 16.3159 7.79969 16.1481 7.54545 16.0545C7.29868 15.9456 7.02493 15.9131 6.75952 15.9613C6.4941 16.0094 6.24919 16.1359 6.05636 16.3245L6.00727 16.3736C5.8553 16.5258 5.67483 16.6465 5.47617 16.7288C5.27752 16.8112 5.06459 16.8536 4.84955 16.8536C4.6345 16.8536 4.42157 16.8112 4.22292 16.7288C4.02426 16.6465 3.84379 16.5258 3.69182 16.3736C3.53967 16.2217 3.41898 16.0412 3.33663 15.8425C3.25428 15.6439 3.21189 15.431 3.21189 15.2159C3.21189 15.0009 3.25428 14.7879 3.33663 14.5893C3.41898 14.3906 3.53967 14.2102 3.69182 14.0582L3.74091 14.0091C3.92953 13.8163 4.05606 13.5714 4.10419 13.3059C4.15231 13.0405 4.11982 12.7668 4.01091 12.52C3.90719 12.278 3.73498 12.0716 3.51547 11.9263C3.29596 11.7809 3.03873 11.7029 2.77545 11.7018H2.63636C2.20237 11.7018 1.78616 11.5294 1.47928 11.2225C1.1724 10.9157 1 10.4994 1 10.0655C1 9.63146 1.1724 9.21525 1.47928 8.90837C1.78616 8.60149 2.20237 8.42909 2.63636 8.42909H2.71C2.98081 8.42276 3.24346 8.3351 3.46379 8.17751C3.68412 8.01992 3.85195 7.79969 3.94545 7.54545C4.05437 7.29868 4.08686 7.02493 4.03873 6.75952C3.99061 6.4941 3.86408 6.24919 3.67545 6.05636L3.62636 6.00727C3.47422 5.8553 3.35352 5.67483 3.27118 5.47617C3.18883 5.27752 3.14644 5.06459 3.14644 4.84955C3.14644 4.6345 3.18883 4.42157 3.27118 4.22292C3.35352 4.02426 3.47422 3.84379 3.62636 3.69182C3.77834 3.53967 3.95881 3.41898 4.15746 3.33663C4.35611 3.25428 4.56905 3.21189 4.78409 3.21189C4.99913 3.21189 5.21207 3.25428 5.41072 3.33663C5.60937 3.41898 5.78984 3.53967 5.94182 3.69182L5.99091 3.74091C6.18374 3.92953 6.42865 4.05606 6.69406 4.10419C6.95948 4.15231 7.23322 4.11982 7.48 4.01091H7.54545C7.78745 3.90719 7.99383 3.73498 8.1392 3.51547C8.28457 3.29596 8.36259 3.03873 8.36364 2.77545V2.63636C8.36364 2.20237 8.53604 1.78616 8.84292 1.47928C9.14979 1.1724 9.56601 1 10 1C10.434 1 10.8502 1.1724 11.1571 1.47928C11.464 1.78616 11.6364 2.20237 11.6364 2.63636V2.71C11.6374 2.97328 11.7154 3.23051 11.8608 3.45002C12.0062 3.66953 12.2126 3.84174 12.4545 3.94545C12.7013 4.05437 12.9751 4.08686 13.2405 4.03873C13.5059 3.99061 13.7508 3.86408 13.9436 3.67545L13.9927 3.62636C14.1447 3.47422 14.3252 3.35352 14.5238 3.27118C14.7225 3.18883 14.9354 3.14644 15.1505 3.14644C15.3655 3.14644 15.5784 3.18883 15.7771 3.27118C15.9757 3.35352 16.1562 3.47422 16.3082 3.62636C16.4603 3.77834 16.581 3.95881 16.6634 4.15746C16.7457 4.35611 16.7881 4.56905 16.7881 4.78409C16.7881 4.99913 16.7457 5.21207 16.6634 5.41072C16.581 5.60937 16.4603 5.78984 16.3082 5.94182L16.2591 5.99091C16.0705 6.18374 15.9439 6.42865 15.8958 6.69406C15.8477 6.95948 15.8802 7.23322 15.9891 7.48V7.54545C16.0928 7.78745 16.265 7.99383 16.4845 8.1392C16.704 8.28457 16.9613 8.36259 17.2245 8.36364H17.3636C17.7976 8.36364 18.2138 8.53604 18.5207 8.84292C18.8276 9.14979 19 9.56601 19 10C19 10.434 18.8276 10.8502 18.5207 11.1571C18.2138 11.464 17.7976 11.6364 17.3636 11.6364H17.29C17.0267 11.6374 16.7695 11.7154 16.55 11.8608C16.3305 12.0062 16.1583 12.2126 16.0545 12.4545V12.4545Z" stroke="currentColor" stroke-width="2" stroke-linecap="round" stroke-linejoin="round"/>
  </symbol>
  <symbol id="triangle" width="22" height="17" viewBox="0 0 22 17" fill="none">
    <path d="M8.66113 1.91169C9.86202 0.416684 12.138 0.41668 13.3389 1.91169L20.9375 11.3713C22.5145 13.3346 21.1169 16.25 18.5986 16.25H3.40141C0.883113 16.25 -0.514536 13.3346 1.06254 11.3713L8.66113 1.91169Z" fill="currentColor"/>
  </symbol>
  <symbol id="twitter" width="30" height="24" viewBox="0 0 30 24" fill="none">
    <path d="M9.4377 24C20.7557 24 26.9479 14.7655 26.9479 6.75987C26.9479 6.50026 26.942 6.23488 26.9303 5.97528C28.1348 5.11759 29.1744 4.05522 30 2.83809C28.8782 3.32952 27.6871 3.65047 26.4674 3.78997C27.7516 3.03206 28.7132 1.84141 29.1738 0.438752C27.9657 1.1437 26.6445 1.64098 25.2668 1.90927C24.3385 0.938173 23.1112 0.295188 21.7746 0.0797305C20.438 -0.135727 19.0665 0.0883448 17.8722 0.717301C16.6779 1.34626 15.7273 2.34507 15.1673 3.55931C14.6074 4.77355 14.4693 6.13559 14.7744 7.43484C12.3281 7.31397 9.93492 6.68829 7.74998 5.59835C5.56503 4.50842 3.63712 2.97856 2.09121 1.10796C1.3055 2.44173 1.06507 4.02001 1.41879 5.52204C1.77251 7.02407 2.69383 8.33714 3.99551 9.19439C3.01829 9.16384 2.06247 8.9048 1.20703 8.43865V8.51365C1.20616 9.91334 1.69762 11.2701 2.59789 12.3534C3.49815 13.4367 4.75165 14.1795 6.14531 14.4557C5.24007 14.6996 4.28998 14.7351 3.36855 14.5596C3.76182 15.7633 4.52697 16.8161 5.55721 17.5711C6.58746 18.3261 7.8314 18.7456 9.11543 18.771C6.93553 20.4569 4.24272 21.3713 1.4707 21.367C0.979109 21.3663 0.487999 21.3366 0 21.2782C2.81607 23.057 6.09191 24.0017 9.4377 24Z" fill="currentColor"/>
  </symbol>
  <symbol id="add" width="12" height="12" viewBox="0 0 12 12" fill="none">
    <path d="M6 1V11" stroke="currentColor" stroke-width="2" stroke-linecap="round" stroke-linejoin="round"/>
    <path d="M1 6H11" stroke="currentColor" stroke-width="2" stroke-linecap="round" stroke-linejoin="round"/>
  </symbol>
  <symbol id="dropdown" width="11" height="7" viewBox="0 0 11 7" fill="none" xmlns="http://www.w3.org/2000/svg">
    <path d="M1.12305 1.69434L5.06269 5.68813L9.00234 1.69434" stroke="currentColor" stroke-width="2" stroke-linecap="round" stroke-linejoin="round"/>
  </symbol>
  <symbol id="info" width="15" height="15" viewBox="0 0 15 15" fill="none" xmlns="http://www.w3.org/2000/svg">
    <path d="M7.5 14C11.0899 14 14 11.0899 14 7.5C14 3.91015 11.0899 1 7.5 1C3.91015 1 1 3.91015 1 7.5C1 11.0899 3.91015 14 7.5 14Z" stroke="currentColor" stroke-width="1.5" stroke-linecap="round" stroke-linejoin="round"/>
    <path d="M7.5 10.1V7.5" stroke="currentColor" stroke-width="1.5" stroke-linecap="round" stroke-linejoin="round"/>
    <path d="M7.5 4.90039H7.5065" stroke="currentColor" stroke-width="1.5" stroke-linecap="round" stroke-linejoin="round"/>
  </symbol>
  <symbol id="bitsong" width="48" height="47" viewBox="0 0 48 47" fill="none" xmlns="http://www.w3.org/2000/svg">
    <path d="M23.955 0C22.1538 0 20.3527 0.178369 18.5516 0.624289C18.5516 0.713473 18.5516 0.802657 18.5516 0.891841V29.8767C18.5516 30.5009 18.0113 30.9469 17.4709 30.9469H15.3096C14.8593 30.9469 14.4991 30.5901 14.4991 30.1442V1.87287C5.94371 5.44023 0 13.8235 0 23.4554C0 36.4763 10.7167 47 24.045 47C37.3734 47 48 36.4763 48 23.5446C48 10.6129 37.1932 0 23.955 0ZM23.5047 33.2657C23.5047 33.8008 23.0544 34.2467 22.5141 34.2467H20.3527C19.8124 34.2467 19.3621 33.8008 19.3621 33.2657V18.3719C19.3621 17.8368 19.8124 17.3909 20.3527 17.3909H22.5141C23.0544 17.3909 23.5047 17.8368 23.5047 18.3719V33.2657ZM28.3677 34.6926C28.3677 35.2277 27.9174 35.6736 27.3771 35.6736H25.2158C24.6754 35.6736 24.2251 35.2277 24.2251 34.6926V16.945C24.2251 16.4099 24.6754 15.9639 25.2158 15.9639H27.3771C27.9174 15.9639 28.3677 16.4099 28.3677 16.945V34.6926ZM33.2308 32.0171C33.2308 32.5522 32.7805 32.9981 32.2402 32.9981H30.0788C29.5385 32.9981 29.0882 32.5522 29.0882 32.0171V19.7989C29.0882 19.2638 29.5385 18.8178 30.0788 18.8178H32.2402C32.7805 18.8178 33.2308 19.2638 33.2308 19.7989V32.0171Z" fill="#343352"/>
  </symbol>
  <symbol id="osmosis" width="92" height="99" viewBox="0 0 92 99" fill="none" xmlns="http://www.w3.org/2000/svg">
    <path fill-rule="evenodd" clip-rule="evenodd" d="M91.0362 17.4169C90.029 13.604 86.7916 9.791 80.9642 5.5464C76.288 2.1651 71.3239 0.222656 67.3671 0.222656C66.5757 0.222656 65.8563 0.294599 65.1369 0.438484C63.3383 0.798196 61.7556 2.09316 60.7484 4.03561C59.5254 6.33776 59.2376 9.43129 60.029 11.3018C60.3167 11.8773 60.6765 12.5968 61.1081 13.2442C59.2804 14.3477 57.8329 15.0711 56.7894 15.5331C52.5168 14.0905 47.9441 13.3086 43.1944 13.3086C19.6692 13.3086 0.604492 32.3733 0.604492 55.8985C0.604492 79.4237 19.6692 98.4884 43.1944 98.4884C66.7196 98.4884 85.7843 79.4237 85.7843 55.8985C85.7843 47.1726 83.1515 39.0603 78.6421 32.3069C78.9921 30.5343 79.55 28.633 80.2448 26.6975C81.252 26.9852 82.2592 27.1291 83.2664 27.1291C85.9283 27.1291 88.2304 26.05 89.6693 24.1075C91.1081 22.1651 91.6836 19.5752 91.0362 17.4169ZM43.1944 15.6827C64.3979 15.6827 81.7397 32.0452 83.2965 52.8467C80.6758 49.8291 73.7745 48.0115 65.2157 47.2831C57.2796 46.6607 49.2657 47.4387 40.0847 50.2397C32.1486 52.5739 24.9906 52.1849 19.7776 51.5624C11.2627 50.5909 5.56003 50.249 3.13209 52.3557C4.92269 31.7883 22.1581 15.6827 43.1944 15.6827ZM40.3181 88.1274C41.5209 88.1274 42.4966 87.1517 42.4966 85.9489C42.4966 84.746 41.5209 83.7703 40.3181 83.7703C39.1152 83.7703 38.1395 84.746 38.1395 85.9489C38.1395 87.1517 39.1152 88.1274 40.3181 88.1274ZM53.8559 84.8588C53.8559 86.0617 52.8802 87.0374 51.6773 87.0374C50.4745 87.0374 49.4988 86.0617 49.4988 84.8588C49.4988 83.656 50.4745 82.6803 51.6773 82.6803C52.8802 82.6803 53.8559 83.656 53.8559 84.8588ZM46.0757 92.0931C46.9782 92.0931 47.7096 91.3618 47.7096 90.4592C47.7096 89.5567 46.9782 88.8253 46.0757 88.8253C45.1731 88.8253 44.4418 89.5567 44.4418 90.4592C44.4418 91.3618 45.1731 92.0931 46.0757 92.0931ZM57.7465 89.2952C57.7465 90.1978 57.0152 90.9292 56.1126 90.9292C55.2101 90.9292 54.4787 90.1978 54.4787 89.2952C54.4787 88.3927 55.2101 87.6613 56.1126 87.6613C57.0152 87.6613 57.7465 88.3927 57.7465 89.2952ZM31.0595 87.3501C33.0365 87.3501 34.6385 85.7481 34.6385 83.7711C34.6385 81.7948 33.0365 80.192 31.0595 80.192C29.0833 80.192 27.4805 81.7948 27.4805 83.7711C27.4805 85.7481 29.0833 87.3501 31.0595 87.3501ZM66.6161 74.9814C66.6161 76.9584 65.0141 78.5604 63.0371 78.5604C61.0609 78.5604 59.4581 76.9584 59.4581 74.9814C59.4581 73.0051 61.0609 71.4023 63.0371 71.4023C65.0141 71.4023 66.6161 73.0051 66.6161 74.9814Z" fill="#6D547A"/>
  </symbol>
  <symbol id="success" width="32" height="32" viewBox="0 0 32 32" fill="none" xmlns="http://www.w3.org/2000/svg">
    <path d="M22.5312 12.4375L13.818 20.75L9.46875 16.5938" stroke="#0AC28B" stroke-width="2" stroke-linecap="round" stroke-linejoin="round"/>
    <path d="M16 30.25C23.8701 30.25 30.25 23.8701 30.25 16C30.25 8.12994 23.8701 1.75 16 1.75C8.12994 1.75 1.75 8.12994 1.75 16C1.75 23.8701 8.12994 30.25 16 30.25Z" stroke="#0AC28B" stroke-width="2" stroke-linecap="round" stroke-linejoin="round"/>
  </symbol>
  <symbol id="error" width="30" height="30" viewBox="0 0 30 30" fill="none" xmlns="http://www.w3.org/2000/svg">
    <path d="M15 29C22.732 29 29 22.732 29 15C29 7.26801 22.732 1 15 1C7.26801 1 1 7.26801 1 15C1 22.732 7.26801 29 15 29Z" stroke="#FF015C" stroke-width="2" stroke-miterlimit="10"/>
    <path d="M19.6663 10.3359L10.333 19.6693" stroke="#FF015C" stroke-width="2" stroke-linecap="round" stroke-linejoin="round"/>
    <path d="M19.6663 19.6693L10.333 10.3359" stroke="#FF015C" stroke-width="2" stroke-linecap="round" stroke-linejoin="round"/>
  </symbol>
  <symbol id="loading" width="35" height="35" viewBox="0 0 35 35" fill="none" xmlns="http://www.w3.org/2000/svg">
    <path d="M2 17.5C2 26.0604 8.93959 33 17.5 33C26.0604 33 33 26.0604 33 17.5C33 8.93959 26.0604 2 17.5 2" stroke="url(#paint0_linear_1614_4287)" stroke-width="3" stroke-linecap="round"/>
    <defs>
      <linearGradient id="paint0_linear_1614_4287" x1="25.25" y1="8.10606" x2="11.8636" y2="28.7727" gradientUnits="userSpaceOnUse">
        <stop stop-color="#9C589C"/>
        <stop offset="1" stop-color="#FF005C"/>
      </linearGradient>
    </defs>
  </symbol>
  <symbol id="discord" viewBox="0 0 25 25" fill="none">
      <path d="M21.1636 4.32862C19.5701 3.59749 17.8614 3.05883 16.0749 2.75032C16.0424 2.74436 16.0099 2.75924 15.9931 2.789C15.7733 3.17985 15.5299 3.68975 15.3595 4.09052C13.4379 3.80285 11.5262 3.80285 9.64408 4.09052C9.47359 3.68084 9.22134 3.17985 9.0006 2.789C8.98384 2.76024 8.95134 2.74536 8.9188 2.75032C7.13324 3.05785 5.42454 3.59651 3.83014 4.32862C3.81634 4.33457 3.80451 4.3445 3.79666 4.35739C0.555616 9.19943 -0.33224 13.9225 0.103313 18.5869C0.105283 18.6097 0.118094 18.6316 0.135831 18.6455C2.27418 20.2158 4.34553 21.1692 6.37842 21.8011C6.41095 21.811 6.44542 21.7991 6.46613 21.7723C6.94701 21.1156 7.37567 20.4232 7.7432 19.695C7.76489 19.6524 7.74419 19.6018 7.69986 19.5849C7.01993 19.327 6.3725 19.0125 5.74972 18.6554C5.70046 18.6266 5.69651 18.5562 5.74183 18.5224C5.87289 18.4242 6.00398 18.322 6.12912 18.2189C6.15176 18.2 6.18331 18.1961 6.20993 18.208C10.3013 20.0759 14.7308 20.0759 18.7739 18.208C18.8005 18.1951 18.8321 18.199 18.8557 18.2179C18.9809 18.3211 19.1119 18.4242 19.244 18.5224C19.2893 18.5562 19.2863 18.6266 19.2371 18.6554C18.6143 19.0194 17.9669 19.327 17.2859 19.5839C17.2416 19.6008 17.2219 19.6524 17.2436 19.695C17.619 20.4221 18.0477 21.1146 18.5197 21.7713C18.5394 21.7991 18.5749 21.811 18.6074 21.8011C20.6501 21.1692 22.7215 20.2158 24.8598 18.6455C24.8786 18.6316 24.8904 18.6107 24.8924 18.5879C25.4136 13.1953 24.0193 8.51098 21.1961 4.35837C21.1892 4.3445 21.1774 4.33457 21.1636 4.32862ZM8.35419 15.7468C7.12239 15.7468 6.10743 14.6159 6.10743 13.227C6.10743 11.8382 7.10271 10.7073 8.35419 10.7073C9.61549 10.7073 10.6206 11.8481 10.6009 13.227C10.6009 14.6159 9.60563 15.7468 8.35419 15.7468ZM16.6612 15.7468C15.4294 15.7468 14.4145 14.6159 14.4145 13.227C14.4145 11.8382 15.4097 10.7073 16.6612 10.7073C17.9225 10.7073 18.9276 11.8481 18.908 13.227C18.908 14.6159 17.9225 15.7468 16.6612 15.7468Z" fill="currentColor"/>
  </symbol>
  <symbol id="facebook" viewBox="0 0 13 23" fill="none">
      <path d="M12.1482 12.8398L12.8219 8.70874H8.60731V6.02913C8.60731 4.89866 9.19498 3.79612 11.0826 3.79612H13V0.279126C13 0.279126 11.2607 0 9.59863 0C6.12603 0 3.85845 1.97901 3.85845 5.56019V8.70874H0V12.8398H3.85845V22.8269C4.63311 22.9414 5.42557 23 6.23288 23C7.04018 23 7.83265 22.9414 8.60731 22.8269V12.8398H12.1482Z" fill="currentColor"/>
  </symbol>
  <symbol id="github" viewBox="0 0 25 25" fill="none">
      <path fill-rule="evenodd" clip-rule="evenodd" d="M12.4995 0.520508C9.53201 0.522047 6.66184 1.57307 4.40219 3.48564C2.14254 5.3982 0.640767 8.0476 0.165394 10.9601C-0.30998 13.8726 0.272042 16.8582 1.8074 19.3832C3.34276 21.9081 5.73133 23.8078 8.546 24.7424C9.16697 24.8576 9.40086 24.4727 9.40086 24.1455C9.40086 23.8183 9.38844 22.8695 9.3843 21.8322C5.9069 22.5834 5.1721 20.3648 5.1721 20.3648C4.60496 18.9241 3.78528 18.5454 3.78528 18.5454C2.65099 17.7757 3.87015 17.7901 3.87015 17.7901C5.12657 17.8786 5.78686 19.0723 5.78686 19.0723C6.90046 20.9719 8.71159 20.4224 9.42363 20.1013C9.5354 19.2966 9.86038 18.7492 10.2185 18.4384C7.44069 18.1255 4.52216 17.0594 4.52216 12.297C4.50494 11.0619 4.96589 9.86744 5.80963 8.9608C5.6813 8.64797 5.25282 7.38429 5.93174 5.66783C5.93174 5.66783 6.98118 5.33442 9.36982 6.9418C11.4186 6.3847 13.5803 6.3847 15.6291 6.9418C18.0157 5.33442 19.0631 5.66783 19.0631 5.66783C19.744 7.38018 19.3156 8.64385 19.1873 8.9608C20.0337 9.86758 20.4956 11.0641 20.4768 12.3011C20.4768 17.0739 17.552 18.1255 14.7701 18.4322C15.2172 18.8191 15.6167 19.5744 15.6167 20.7352C15.6167 22.3982 15.6022 23.7359 15.6022 24.1455C15.6022 24.4769 15.8278 24.8638 16.4612 24.7424C19.2762 23.8076 21.665 21.9077 23.2004 19.3823C24.7357 16.8569 25.3174 13.8708 24.8415 10.9581C24.3656 8.0453 22.8631 5.39588 20.6027 3.48364C18.3423 1.5714 15.4714 0.521072 12.5036 0.520508H12.4995Z" fill="currentColor"/>
      <path d="M4.73436 18.3667C4.70745 18.4284 4.6081 18.4469 4.52737 18.4037C4.44665 18.3605 4.38663 18.2802 4.41561 18.2164C4.44458 18.1526 4.54187 18.1361 4.62259 18.1794C4.70332 18.2226 4.76541 18.3049 4.73436 18.3667Z" fill="currentColor"/>
      <path d="M5.24168 18.9281C5.19881 18.9496 5.14977 18.9556 5.10295 18.9451C5.05613 18.9346 5.01444 18.9082 4.98501 18.8705C4.90429 18.784 4.88772 18.6647 4.94982 18.6112C5.01191 18.5577 5.1237 18.5824 5.20442 18.6688C5.28515 18.7552 5.30377 18.8746 5.24168 18.9281Z" fill="currentColor"/>
      <path d="M5.73341 19.6423C5.65683 19.6958 5.52642 19.6423 5.45397 19.5353C5.43394 19.5161 5.41801 19.493 5.40712 19.4676C5.39624 19.4421 5.39062 19.4147 5.39062 19.3871C5.39062 19.3594 5.39624 19.332 5.40712 19.3066C5.41801 19.2811 5.43394 19.2581 5.45397 19.2389C5.53055 19.1874 5.66096 19.2389 5.73341 19.3439C5.80586 19.4488 5.80793 19.5888 5.73341 19.6423Z" fill="currentColor"/>
      <path d="M6.40308 20.3345C6.33477 20.4106 6.19609 20.39 6.08225 20.2871C5.96841 20.1842 5.94149 20.0443 6.0098 19.9702C6.0781 19.8961 6.21679 19.9167 6.33477 20.0175C6.45275 20.1184 6.47552 20.2604 6.40308 20.3345Z" fill="currentColor"/>
      <path d="M7.34058 20.7377C7.30953 20.8344 7.16878 20.8776 7.02802 20.8364C6.88727 20.7953 6.79413 20.68 6.82104 20.5812C6.84795 20.4825 6.99077 20.4372 7.13359 20.4825C7.27641 20.5277 7.36749 20.6368 7.34058 20.7377Z" fill="currentColor"/>
      <path d="M8.36227 20.8071C8.36227 20.908 8.24636 20.9944 8.09733 20.9965C7.94829 20.9985 7.82617 20.9162 7.82617 20.8154C7.82617 20.7145 7.94208 20.6281 8.09111 20.626C8.24014 20.624 8.36227 20.7042 8.36227 20.8071Z" fill="currentColor"/>
      <path d="M9.31531 20.6489C9.33394 20.7498 9.23044 20.8547 9.08141 20.8794C8.93238 20.9041 8.80198 20.8444 8.78335 20.7456C8.76472 20.6469 8.87235 20.5398 9.01725 20.5131C9.16214 20.4863 9.29668 20.5481 9.31531 20.6489Z" fill="currentColor"/>
      <defs>
          <clipPath id="clip0_1378_16312">
              <rect fill="currentColor"/>
          </clipPath>
      </defs>
  </symbol>
  <symbol id="instagram" viewBox="0 0 25 25" fill="none">
      <path d="M12.5 2.25098C15.8398 2.25098 16.2354 2.26562 17.5488 2.32422C18.7695 2.37793 19.4287 2.58301 19.8682 2.75391C20.4492 2.97852 20.8691 3.25195 21.3037 3.68652C21.7432 4.12598 22.0117 4.54102 22.2363 5.12207C22.4072 5.56152 22.6123 6.22559 22.666 7.44141C22.7246 8.75977 22.7393 9.15527 22.7393 12.4902C22.7393 15.8301 22.7246 16.2256 22.666 17.5391C22.6123 18.7598 22.4072 19.4189 22.2363 19.8584C22.0117 20.4395 21.7383 20.8594 21.3037 21.2939C20.8643 21.7334 20.4492 22.002 19.8682 22.2266C19.4287 22.3975 18.7646 22.6025 17.5488 22.6563C16.2305 22.7148 15.835 22.7295 12.5 22.7295C9.16016 22.7295 8.76465 22.7148 7.45117 22.6563C6.23047 22.6025 5.57129 22.3975 5.13184 22.2266C4.55078 22.002 4.13086 21.7285 3.69629 21.2939C3.25684 20.8545 2.98828 20.4395 2.76367 19.8584C2.59277 19.4189 2.3877 18.7549 2.33398 17.5391C2.27539 16.2207 2.26074 15.8252 2.26074 12.4902C2.26074 9.15039 2.27539 8.75488 2.33398 7.44141C2.3877 6.2207 2.59277 5.56152 2.76367 5.12207C2.98828 4.54102 3.26172 4.12109 3.69629 3.68652C4.13574 3.24707 4.55078 2.97852 5.13184 2.75391C5.57129 2.58301 6.23535 2.37793 7.45117 2.32422C8.76465 2.26562 9.16016 2.25098 12.5 2.25098ZM12.5 0C9.10645 0 8.68164 0.0146484 7.34863 0.0732422C6.02051 0.131836 5.10742 0.34668 4.31641 0.654297C3.49121 0.976562 2.79297 1.40137 2.09961 2.09961C1.40137 2.79297 0.976562 3.49121 0.654297 4.31152C0.34668 5.10742 0.131836 6.01562 0.0732422 7.34375C0.0146484 8.68164 0 9.10645 0 12.5C0 15.8936 0.0146484 16.3184 0.0732422 17.6514C0.131836 18.9795 0.34668 19.8926 0.654297 20.6836C0.976562 21.5088 1.40137 22.207 2.09961 22.9004C2.79297 23.5938 3.49121 24.0234 4.31152 24.3408C5.10742 24.6484 6.01562 24.8633 7.34375 24.9219C8.67676 24.9805 9.10156 24.9951 12.4951 24.9951C15.8887 24.9951 16.3135 24.9805 17.6465 24.9219C18.9746 24.8633 19.8877 24.6484 20.6787 24.3408C21.499 24.0234 22.1973 23.5938 22.8906 22.9004C23.584 22.207 24.0137 21.5088 24.3311 20.6885C24.6387 19.8926 24.8535 18.9844 24.9121 17.6563C24.9707 16.3232 24.9854 15.8984 24.9854 12.5049C24.9854 9.11133 24.9707 8.68652 24.9121 7.35352C24.8535 6.02539 24.6387 5.11231 24.3311 4.32129C24.0234 3.49121 23.5986 2.79297 22.9004 2.09961C22.207 1.40625 21.5088 0.976563 20.6885 0.65918C19.8926 0.351562 18.9844 0.136719 17.6562 0.078125C16.3184 0.0146484 15.8936 0 12.5 0Z" fill="currentColor"/>
      <path d="M12.499 6.0791C8.9541 6.0791 6.07812 8.95508 6.07812 12.5C6.07812 16.0449 8.9541 18.9209 12.499 18.9209C16.0439 18.9209 18.9199 16.0449 18.9199 12.5C18.9199 8.95508 16.0439 6.0791 12.499 6.0791ZM12.499 16.665C10.1992 16.665 8.33398 14.7998 8.33398 12.5C8.33398 10.2002 10.1992 8.33496 12.499 8.33496C14.7988 8.33496 16.6641 10.2002 16.6641 12.5C16.6641 14.7998 14.7988 16.665 12.499 16.665Z" fill="currentColor"/>
      <path d="M20.6738 5.8252C20.6738 6.65528 20 7.32422 19.1748 7.32422C18.3447 7.32422 17.6758 6.65039 17.6758 5.8252C17.6758 4.99512 18.3496 4.32617 19.1748 4.32617C20 4.32617 20.6738 5 20.6738 5.8252Z" fill="currentColor"/>
  </symbol>
  <symbol id="internet" viewBox="0 0 22 22" fill="none">
      <path d="M11 21C16.5228 21 21 16.5228 21 11C21 5.47715 16.5228 1 11 1C5.47715 1 1 5.47715 1 11C1 16.5228 5.47715 21 11 21Z" stroke="currentColor" stroke-width="2" stroke-linejoin="round"/>
      <path d="M1 11H21" stroke="currentColor" stroke-width="2" stroke-linejoin="round"/>
      <path d="M11 1C13.5013 3.73835 14.9228 7.29203 15 11C14.9228 14.708 13.5013 18.2616 11 21C8.49872 18.2616 7.07725 14.708 7 11C7.07725 7.29203 8.49872 3.73835 11 1V1Z" stroke="currentColor" stroke-width="2" stroke-linejoin="round"/>
  </symbol>
  <symbol id="linkedin" viewBox="0 0 25 25" fill="none">
      <path d="M23.1494 0H1.8457C0.825195 0 0 0.805664 0 1.80176V23.1934C0 24.1895 0.825195 25 1.8457 25H23.1494C24.1699 25 25 24.1895 25 23.1982V1.80176C25 0.805664 24.1699 0 23.1494 0ZM7.41699 21.3037H3.70605V9.37012H7.41699V21.3037ZM5.56152 7.74414C4.37012 7.74414 3.4082 6.78223 3.4082 5.5957C3.4082 4.40918 4.37012 3.44727 5.56152 3.44727C6.74805 3.44727 7.70996 4.40918 7.70996 5.5957C7.70996 6.77734 6.74805 7.74414 5.56152 7.74414ZM21.3037 21.3037H17.5977V15.5029C17.5977 14.1211 17.5732 12.3389 15.6689 12.3389C13.7402 12.3389 13.4473 13.8477 13.4473 15.4053V21.3037H9.74609V9.37012H13.3008V11.001H13.3496C13.8428 10.0635 15.0537 9.07227 16.8555 9.07227C20.6104 9.07227 21.3037 11.543 21.3037 14.7559V21.3037Z" fill="currentColor"/>
  </symbol>
  <symbol id="mail" viewBox="0 0 22 18" fill="none">
      <path d="M3 1H19C20.1 1 21 1.9 21 3V15C21 16.1 20.1 17 19 17H3C1.9 17 1 16.1 1 15V3C1 1.9 1.9 1 3 1Z" stroke="currentColor" stroke-width="2" stroke-linejoin="round"/>
      <path d="M21 3L11 10L1 3" stroke="currentColor" stroke-width="2" stroke-linejoin="round"/>
  </symbol>
  <symbol id="medium" viewBox="0 0 25 25" fill="none">
      <path d="M14.1015 12.3202C14.1015 16.248 10.9447 19.4321 7.05087 19.4321C3.15701 19.4321 0 16.2473 0 12.3202C0 8.39309 3.15677 5.20801 7.05087 5.20801C10.945 5.20801 14.1015 8.39237 14.1015 12.3202Z" fill="currentColor"/>
      <path d="M21.836 12.3206C21.836 16.0178 20.2576 19.0161 18.3106 19.0161C16.3635 19.0161 14.7852 16.0178 14.7852 12.3206C14.7852 8.62337 16.3633 5.625 18.3104 5.625C20.2574 5.625 21.8358 8.62241 21.8358 12.3206" fill="currentColor"/>
      <path d="M24.9991 12.3204C24.9991 15.6322 24.4441 18.3186 23.7592 18.3186C23.0743 18.3186 22.5195 15.633 22.5195 12.3204C22.5195 9.00793 23.0746 6.32227 23.7592 6.32227C24.4438 6.32227 24.9991 9.00769 24.9991 12.3204Z" fill="currentColor"/>
  </symbol>
  <symbol id="reddit" viewBox="0 0 25 25" fill="none">
      <path fill-rule="evenodd" clip-rule="evenodd" d="M25 12.5C25 19.4036 19.4036 25 12.5 25C5.59644 25 0 19.4036 0 12.5C0 5.59644 5.59644 0 12.5 0C19.4036 0 25 5.59644 25 12.5ZM19.0059 10.6725C20.0146 10.6725 20.8333 11.4912 20.8333 12.5C20.8333 13.2456 20.3801 13.8889 19.7807 14.1813C19.8099 14.3567 19.8246 14.5321 19.8246 14.7222C19.8246 17.5292 16.5643 19.7953 12.5292 19.7953C8.49416 19.7953 5.23392 17.5292 5.23392 14.7222C5.23392 14.5321 5.24854 14.3421 5.27778 14.1666C4.63451 13.8742 4.19591 13.2456 4.19591 12.5C4.19591 11.4912 5.01463 10.6725 6.0234 10.6725C6.50585 10.6725 6.95907 10.8772 7.28071 11.1842C8.53802 10.2631 10.2778 9.69296 12.2222 9.63448L13.1433 5.27775C13.1725 5.19003 13.2164 5.11693 13.2895 5.07307C13.3626 5.02921 13.4503 5.0146 13.538 5.02922L16.5643 5.67249C16.769 5.23389 17.2076 4.94149 17.7193 4.94149C18.4357 4.94149 19.0205 5.52629 19.0205 6.24267C19.0205 6.95904 18.4357 7.54384 17.7193 7.54384C17.0176 7.54384 16.4474 6.98828 16.4181 6.30114L13.7135 5.73097L12.8801 9.63448C14.7807 9.70758 16.5059 10.2924 17.7485 11.1842C18.0702 10.8625 18.5088 10.6725 19.0059 10.6725ZM9.63451 12.5C8.91814 12.5 8.33334 13.0848 8.33334 13.8011C8.33334 14.5175 8.91814 15.1023 9.63451 15.1023C10.3509 15.1023 10.9357 14.5175 10.9357 13.8011C10.9357 13.0848 10.3509 12.5 9.63451 12.5ZM12.5146 18.1871C13.0117 18.1871 14.7076 18.1286 15.5994 17.2368C15.731 17.1052 15.731 16.9006 15.6287 16.7544C15.4971 16.6228 15.2778 16.6228 15.1462 16.7544C14.576 17.3099 13.3918 17.5146 12.5292 17.5146C11.6667 17.5146 10.4678 17.3099 9.91229 16.7544C9.78071 16.6228 9.56141 16.6228 9.42983 16.7544C9.29825 16.8859 9.29825 17.1052 9.42983 17.2368C10.307 18.114 12.0176 18.1871 12.5146 18.1871ZM14.0643 13.8011C14.0643 14.5175 14.6491 15.1023 15.3655 15.1023C16.0819 15.1023 16.6667 14.5175 16.6667 13.8011C16.6667 13.0848 16.0819 12.5 15.3655 12.5C14.6491 12.5 14.0643 13.0848 14.0643 13.8011Z" fill="currentColor"/>
  </symbol>
  <symbol id="telegram" viewBox="0 0 25 25" fill="none">
      <path fill-rule="evenodd" clip-rule="evenodd" d="M25 12.5C25 19.4036 19.4036 25 12.5 25C5.59644 25 0 19.4036 0 12.5C0 5.59644 5.59644 0 12.5 0C19.4036 0 25 5.59644 25 12.5ZM12.9479 9.22805C11.7321 9.73375 9.30223 10.7804 5.65822 12.368C5.06649 12.6034 4.75652 12.8336 4.7283 13.0587C4.68061 13.4391 5.15699 13.5889 5.8057 13.7928C5.89394 13.8206 5.98537 13.8493 6.0791 13.8798C6.71733 14.0873 7.57586 14.33 8.02217 14.3396C8.42702 14.3484 8.87888 14.1815 9.37775 13.8389C12.7825 11.5406 14.54 10.379 14.6503 10.3539C14.7282 10.3363 14.836 10.314 14.9091 10.379C14.9822 10.444 14.975 10.567 14.9673 10.6C14.9201 10.8012 13.0501 12.5397 12.0824 13.4394C11.7807 13.7198 11.5667 13.9188 11.523 13.9642C11.425 14.066 11.3251 14.1623 11.2291 14.2548C10.6362 14.8264 10.1916 15.255 11.2538 15.955C11.7642 16.2914 12.1726 16.5695 12.5801 16.847C13.0252 17.1501 13.469 17.4523 14.0433 17.8288C14.1897 17.9247 14.3294 18.0244 14.4655 18.1214C14.9834 18.4906 15.4487 18.8223 16.0235 18.7694C16.3575 18.7387 16.7026 18.4246 16.8778 17.4879C17.2919 15.2741 18.1059 10.4776 18.294 8.50101C18.3105 8.32784 18.2897 8.10622 18.2731 8.00893C18.2564 7.91164 18.2216 7.77303 18.0952 7.67042C17.9454 7.54889 17.7142 7.52327 17.6108 7.52509C17.1406 7.53337 16.4193 7.78418 12.9479 9.22805Z" fill="currentColor"/>
  </symbol>
  <symbol id="tiktok" viewBox="0 0 22 24" fill="none">
      <path opacity="0.2" d="M16.1754 0H11.8347V16.3478C11.8347 18.2957 10.1653 19.8957 8.0877 19.8957C6.01012 19.8957 4.34064 18.2957 4.34064 16.3478C4.34064 14.4348 5.97302 12.8695 7.97642 12.8V8.69567C3.56155 8.7652 0 12.1391 0 16.3478C0 20.5913 3.63575 24 8.12481 24C12.6138 24 16.2496 20.5565 16.2496 16.3478V7.9652C17.882 9.07827 19.8853 9.73913 22 9.77393V5.66957C18.7353 5.56522 16.1754 3.06087 16.1754 0Z" fill="currentColor"/>
  </symbol>
  <symbol id="twitter" viewBox="0 0 25 21" fill="none">
      <path d="M7.86475 20.656C17.2964 20.656 22.4565 12.8401 22.4565 6.06422C22.4565 6.00981 22.4562 5.9551 22.4556 5.90024C22.4522 5.58799 22.5961 5.29229 22.8401 5.09736C23.3353 4.70165 23.793 4.2619 24.2076 3.7838C24.456 3.49733 24.1376 3.08967 23.7742 3.19784V3.19784C23.3838 3.31405 23.122 2.72496 23.3813 2.41084C23.5092 2.25597 23.628 2.09368 23.7371 1.92477C23.991 1.53148 23.5445 1.13775 23.1142 1.32206C22.6386 1.52576 22.148 1.69351 21.6465 1.82373C21.2815 1.91852 20.9042 1.78513 20.6152 1.54283C19.9114 0.952826 19.0591 0.559827 18.1455 0.410256C17.0316 0.227896 15.8887 0.417547 14.8935 0.949887C13.8982 1.48223 13.106 2.3276 12.6394 3.35532V3.35532C11.9439 4.8872 10.6259 6.55021 9.00923 6.08446C8.13165 5.83162 7.27742 5.49614 6.45831 5.08114C5.79248 4.74379 5.15528 4.35665 4.55183 3.92382C3.03317 2.83457 0.760197 3.19595 1.18232 5.01655V5.01655C1.35245 5.75031 1.68016 6.43079 2.13543 7.01457C2.42526 7.3862 2.17142 7.97684 1.72881 7.81497C1.50019 7.73137 1.27719 7.63138 1.06159 7.51552C1.03648 7.50203 1.00586 7.52009 1.00586 7.5486V7.5486C1.00513 8.73328 1.41469 9.88165 2.16491 10.7985C2.55972 11.281 3.03605 11.6837 3.56803 11.9911C3.92899 12.1996 3.88686 12.7744 3.47074 12.7495V12.7495C3.17057 12.7315 2.92414 13.0152 3.05257 13.2871C3.41119 14.0463 3.95201 14.7093 4.63101 15.2147V15.2147C5.4883 15.8528 5.83078 17.4091 4.8292 17.7817C3.68413 18.2078 2.46435 18.4295 1.22559 18.4275V18.4275C0.927098 18.427 0.79697 18.8319 1.0609 18.9713C3.15219 20.076 5.48728 20.6573 7.86475 20.656Z" fill="currentColor"/>
  </symbol>
</svg>