<svg xmlns="http://www.w3.org/2000/symbol">
    <symbol id="discord" viewBox="0 0 25 25" fill="none">
        <path d="M21.1636 4.32862C19.5701 3.59749 17.8614 3.05883 16.0749 2.75032C16.0424 2.74436 16.0099 2.75924 15.9931 2.789C15.7733 3.17985 15.5299 3.68975 15.3595 4.09052C13.4379 3.80285 11.5262 3.80285 9.64408 4.09052C9.47359 3.68084 9.22134 3.17985 9.0006 2.789C8.98384 2.76024 8.95134 2.74536 8.9188 2.75032C7.13324 3.05785 5.42454 3.59651 3.83014 4.32862C3.81634 4.33457 3.80451 4.3445 3.79666 4.35739C0.555616 9.19943 -0.33224 13.9225 0.103313 18.5869C0.105283 18.6097 0.118094 18.6316 0.135831 18.6455C2.27418 20.2158 4.34553 21.1692 6.37842 21.8011C6.41095 21.811 6.44542 21.7991 6.46613 21.7723C6.94701 21.1156 7.37567 20.4232 7.7432 19.695C7.76489 19.6524 7.74419 19.6018 7.69986 19.5849C7.01993 19.327 6.3725 19.0125 5.74972 18.6554C5.70046 18.6266 5.69651 18.5562 5.74183 18.5224C5.87289 18.4242 6.00398 18.322 6.12912 18.2189C6.15176 18.2 6.18331 18.1961 6.20993 18.208C10.3013 20.0759 14.7308 20.0759 18.7739 18.208C18.8005 18.1951 18.8321 18.199 18.8557 18.2179C18.9809 18.3211 19.1119 18.4242 19.244 18.5224C19.2893 18.5562 19.2863 18.6266 19.2371 18.6554C18.6143 19.0194 17.9669 19.327 17.2859 19.5839C17.2416 19.6008 17.2219 19.6524 17.2436 19.695C17.619 20.4221 18.0477 21.1146 18.5197 21.7713C18.5394 21.7991 18.5749 21.811 18.6074 21.8011C20.6501 21.1692 22.7215 20.2158 24.8598 18.6455C24.8786 18.6316 24.8904 18.6107 24.8924 18.5879C25.4136 13.1953 24.0193 8.51098 21.1961 4.35837C21.1892 4.3445 21.1774 4.33457 21.1636 4.32862ZM8.35419 15.7468C7.12239 15.7468 6.10743 14.6159 6.10743 13.227C6.10743 11.8382 7.10271 10.7073 8.35419 10.7073C9.61549 10.7073 10.6206 11.8481 10.6009 13.227C10.6009 14.6159 9.60563 15.7468 8.35419 15.7468ZM16.6612 15.7468C15.4294 15.7468 14.4145 14.6159 14.4145 13.227C14.4145 11.8382 15.4097 10.7073 16.6612 10.7073C17.9225 10.7073 18.9276 11.8481 18.908 13.227C18.908 14.6159 17.9225 15.7468 16.6612 15.7468Z" fill="currentColor"/>
    </symbol>
    <symbol id="facebook" viewBox="0 0 13 23" fill="none">
        <path d="M12.1482 12.8398L12.8219 8.70874H8.60731V6.02913C8.60731 4.89866 9.19498 3.79612 11.0826 3.79612H13V0.279126C13 0.279126 11.2607 0 9.59863 0C6.12603 0 3.85845 1.97901 3.85845 5.56019V8.70874H0V12.8398H3.85845V22.8269C4.63311 22.9414 5.42557 23 6.23288 23C7.04018 23 7.83265 22.9414 8.60731 22.8269V12.8398H12.1482Z" fill="currentColor"/>
    </symbol>
    <symbol id="github" viewBox="0 0 25 25" fill="none">
        <path fill-rule="evenodd" clip-rule="evenodd" d="M12.4995 0.520508C9.53201 0.522047 6.66184 1.57307 4.40219 3.48564C2.14254 5.3982 0.640767 8.0476 0.165394 10.9601C-0.30998 13.8726 0.272042 16.8582 1.8074 19.3832C3.34276 21.9081 5.73133 23.8078 8.546 24.7424C9.16697 24.8576 9.40086 24.4727 9.40086 24.1455C9.40086 23.8183 9.38844 22.8695 9.3843 21.8322C5.9069 22.5834 5.1721 20.3648 5.1721 20.3648C4.60496 18.9241 3.78528 18.5454 3.78528 18.5454C2.65099 17.7757 3.87015 17.7901 3.87015 17.7901C5.12657 17.8786 5.78686 19.0723 5.78686 19.0723C6.90046 20.9719 8.71159 20.4224 9.42363 20.1013C9.5354 19.2966 9.86038 18.7492 10.2185 18.4384C7.44069 18.1255 4.52216 17.0594 4.52216 12.297C4.50494 11.0619 4.96589 9.86744 5.80963 8.9608C5.6813 8.64797 5.25282 7.38429 5.93174 5.66783C5.93174 5.66783 6.98118 5.33442 9.36982 6.9418C11.4186 6.3847 13.5803 6.3847 15.6291 6.9418C18.0157 5.33442 19.0631 5.66783 19.0631 5.66783C19.744 7.38018 19.3156 8.64385 19.1873 8.9608C20.0337 9.86758 20.4956 11.0641 20.4768 12.3011C20.4768 17.0739 17.552 18.1255 14.7701 18.4322C15.2172 18.8191 15.6167 19.5744 15.6167 20.7352C15.6167 22.3982 15.6022 23.7359 15.6022 24.1455C15.6022 24.4769 15.8278 24.8638 16.4612 24.7424C19.2762 23.8076 21.665 21.9077 23.2004 19.3823C24.7357 16.8569 25.3174 13.8708 24.8415 10.9581C24.3656 8.0453 22.8631 5.39588 20.6027 3.48364C18.3423 1.5714 15.4714 0.521072 12.5036 0.520508H12.4995Z" fill="currentColor"/>
        <path d="M4.73436 18.3667C4.70745 18.4284 4.6081 18.4469 4.52737 18.4037C4.44665 18.3605 4.38663 18.2802 4.41561 18.2164C4.44458 18.1526 4.54187 18.1361 4.62259 18.1794C4.70332 18.2226 4.76541 18.3049 4.73436 18.3667Z" fill="currentColor"/>
        <path d="M5.24168 18.9281C5.19881 18.9496 5.14977 18.9556 5.10295 18.9451C5.05613 18.9346 5.01444 18.9082 4.98501 18.8705C4.90429 18.784 4.88772 18.6647 4.94982 18.6112C5.01191 18.5577 5.1237 18.5824 5.20442 18.6688C5.28515 18.7552 5.30377 18.8746 5.24168 18.9281Z" fill="currentColor"/>
        <path d="M5.73341 19.6423C5.65683 19.6958 5.52642 19.6423 5.45397 19.5353C5.43394 19.5161 5.41801 19.493 5.40712 19.4676C5.39624 19.4421 5.39062 19.4147 5.39062 19.3871C5.39062 19.3594 5.39624 19.332 5.40712 19.3066C5.41801 19.2811 5.43394 19.2581 5.45397 19.2389C5.53055 19.1874 5.66096 19.2389 5.73341 19.3439C5.80586 19.4488 5.80793 19.5888 5.73341 19.6423Z" fill="currentColor"/>
        <path d="M6.40308 20.3345C6.33477 20.4106 6.19609 20.39 6.08225 20.2871C5.96841 20.1842 5.94149 20.0443 6.0098 19.9702C6.0781 19.8961 6.21679 19.9167 6.33477 20.0175C6.45275 20.1184 6.47552 20.2604 6.40308 20.3345Z" fill="currentColor"/>
        <path d="M7.34058 20.7377C7.30953 20.8344 7.16878 20.8776 7.02802 20.8364C6.88727 20.7953 6.79413 20.68 6.82104 20.5812C6.84795 20.4825 6.99077 20.4372 7.13359 20.4825C7.27641 20.5277 7.36749 20.6368 7.34058 20.7377Z" fill="currentColor"/>
        <path d="M8.36227 20.8071C8.36227 20.908 8.24636 20.9944 8.09733 20.9965C7.94829 20.9985 7.82617 20.9162 7.82617 20.8154C7.82617 20.7145 7.94208 20.6281 8.09111 20.626C8.24014 20.624 8.36227 20.7042 8.36227 20.8071Z" fill="currentColor"/>
        <path d="M9.31531 20.6489C9.33394 20.7498 9.23044 20.8547 9.08141 20.8794C8.93238 20.9041 8.80198 20.8444 8.78335 20.7456C8.76472 20.6469 8.87235 20.5398 9.01725 20.5131C9.16214 20.4863 9.29668 20.5481 9.31531 20.6489Z" fill="currentColor"/>
        <defs>
            <clipPath id="clip0_1378_16312">
                <rect fill="currentColor"/>
            </clipPath>
        </defs>
    </symbol>
    <symbol id="instagram" viewBox="0 0 25 25" fill="none">
        <path d="M12.5 2.25098C15.8398 2.25098 16.2354 2.26562 17.5488 2.32422C18.7695 2.37793 19.4287 2.58301 19.8682 2.75391C20.4492 2.97852 20.8691 3.25195 21.3037 3.68652C21.7432 4.12598 22.0117 4.54102 22.2363 5.12207C22.4072 5.56152 22.6123 6.22559 22.666 7.44141C22.7246 8.75977 22.7393 9.15527 22.7393 12.4902C22.7393 15.8301 22.7246 16.2256 22.666 17.5391C22.6123 18.7598 22.4072 19.4189 22.2363 19.8584C22.0117 20.4395 21.7383 20.8594 21.3037 21.2939C20.8643 21.7334 20.4492 22.002 19.8682 22.2266C19.4287 22.3975 18.7646 22.6025 17.5488 22.6563C16.2305 22.7148 15.835 22.7295 12.5 22.7295C9.16016 22.7295 8.76465 22.7148 7.45117 22.6563C6.23047 22.6025 5.57129 22.3975 5.13184 22.2266C4.55078 22.002 4.13086 21.7285 3.69629 21.2939C3.25684 20.8545 2.98828 20.4395 2.76367 19.8584C2.59277 19.4189 2.3877 18.7549 2.33398 17.5391C2.27539 16.2207 2.26074 15.8252 2.26074 12.4902C2.26074 9.15039 2.27539 8.75488 2.33398 7.44141C2.3877 6.2207 2.59277 5.56152 2.76367 5.12207C2.98828 4.54102 3.26172 4.12109 3.69629 3.68652C4.13574 3.24707 4.55078 2.97852 5.13184 2.75391C5.57129 2.58301 6.23535 2.37793 7.45117 2.32422C8.76465 2.26562 9.16016 2.25098 12.5 2.25098ZM12.5 0C9.10645 0 8.68164 0.0146484 7.34863 0.0732422C6.02051 0.131836 5.10742 0.34668 4.31641 0.654297C3.49121 0.976562 2.79297 1.40137 2.09961 2.09961C1.40137 2.79297 0.976562 3.49121 0.654297 4.31152C0.34668 5.10742 0.131836 6.01562 0.0732422 7.34375C0.0146484 8.68164 0 9.10645 0 12.5C0 15.8936 0.0146484 16.3184 0.0732422 17.6514C0.131836 18.9795 0.34668 19.8926 0.654297 20.6836C0.976562 21.5088 1.40137 22.207 2.09961 22.9004C2.79297 23.5938 3.49121 24.0234 4.31152 24.3408C5.10742 24.6484 6.01562 24.8633 7.34375 24.9219C8.67676 24.9805 9.10156 24.9951 12.4951 24.9951C15.8887 24.9951 16.3135 24.9805 17.6465 24.9219C18.9746 24.8633 19.8877 24.6484 20.6787 24.3408C21.499 24.0234 22.1973 23.5938 22.8906 22.9004C23.584 22.207 24.0137 21.5088 24.3311 20.6885C24.6387 19.8926 24.8535 18.9844 24.9121 17.6563C24.9707 16.3232 24.9854 15.8984 24.9854 12.5049C24.9854 9.11133 24.9707 8.68652 24.9121 7.35352C24.8535 6.02539 24.6387 5.11231 24.3311 4.32129C24.0234 3.49121 23.5986 2.79297 22.9004 2.09961C22.207 1.40625 21.5088 0.976563 20.6885 0.65918C19.8926 0.351562 18.9844 0.136719 17.6562 0.078125C16.3184 0.0146484 15.8936 0 12.5 0Z" fill="currentColor"/>
        <path d="M12.499 6.0791C8.9541 6.0791 6.07812 8.95508 6.07812 12.5C6.07812 16.0449 8.9541 18.9209 12.499 18.9209C16.0439 18.9209 18.9199 16.0449 18.9199 12.5C18.9199 8.95508 16.0439 6.0791 12.499 6.0791ZM12.499 16.665C10.1992 16.665 8.33398 14.7998 8.33398 12.5C8.33398 10.2002 10.1992 8.33496 12.499 8.33496C14.7988 8.33496 16.6641 10.2002 16.6641 12.5C16.6641 14.7998 14.7988 16.665 12.499 16.665Z" fill="currentColor"/>
        <path d="M20.6738 5.8252C20.6738 6.65528 20 7.32422 19.1748 7.32422C18.3447 7.32422 17.6758 6.65039 17.6758 5.8252C17.6758 4.99512 18.3496 4.32617 19.1748 4.32617C20 4.32617 20.6738 5 20.6738 5.8252Z" fill="currentColor"/>
    </symbol>
    <symbol id="internet" viewBox="0 0 22 22" fill="none">
        <path d="M11 21C16.5228 21 21 16.5228 21 11C21 5.47715 16.5228 1 11 1C5.47715 1 1 5.47715 1 11C1 16.5228 5.47715 21 11 21Z" stroke="currentColor" stroke-width="2" stroke-linejoin="round"/>
        <path d="M1 11H21" stroke="currentColor" stroke-width="2" stroke-linejoin="round"/>
        <path d="M11 1C13.5013 3.73835 14.9228 7.29203 15 11C14.9228 14.708 13.5013 18.2616 11 21C8.49872 18.2616 7.07725 14.708 7 11C7.07725 7.29203 8.49872 3.73835 11 1V1Z" stroke="currentColor" stroke-width="2" stroke-linejoin="round"/>
    </symbol>
    <symbol id="linkedin" viewBox="0 0 25 25" fill="none">
        <path d="M23.1494 0H1.8457C0.825195 0 0 0.805664 0 1.80176V23.1934C0 24.1895 0.825195 25 1.8457 25H23.1494C24.1699 25 25 24.1895 25 23.1982V1.80176C25 0.805664 24.1699 0 23.1494 0ZM7.41699 21.3037H3.70605V9.37012H7.41699V21.3037ZM5.56152 7.74414C4.37012 7.74414 3.4082 6.78223 3.4082 5.5957C3.4082 4.40918 4.37012 3.44727 5.56152 3.44727C6.74805 3.44727 7.70996 4.40918 7.70996 5.5957C7.70996 6.77734 6.74805 7.74414 5.56152 7.74414ZM21.3037 21.3037H17.5977V15.5029C17.5977 14.1211 17.5732 12.3389 15.6689 12.3389C13.7402 12.3389 13.4473 13.8477 13.4473 15.4053V21.3037H9.74609V9.37012H13.3008V11.001H13.3496C13.8428 10.0635 15.0537 9.07227 16.8555 9.07227C20.6104 9.07227 21.3037 11.543 21.3037 14.7559V21.3037Z" fill="currentColor"/>
    </symbol>
    <symbol id="mail" viewBox="0 0 22 18" fill="none">
        <path d="M3 1H19C20.1 1 21 1.9 21 3V15C21 16.1 20.1 17 19 17H3C1.9 17 1 16.1 1 15V3C1 1.9 1.9 1 3 1Z" stroke="currentColor" stroke-width="2" stroke-linejoin="round"/>
        <path d="M21 3L11 10L1 3" stroke="currentColor" stroke-width="2" stroke-linejoin="round"/>
    </symbol>
    <symbol id="medium" viewBox="0 0 25 25" fill="none">
        <path d="M14.1015 12.3202C14.1015 16.248 10.9447 19.4321 7.05087 19.4321C3.15701 19.4321 0 16.2473 0 12.3202C0 8.39309 3.15677 5.20801 7.05087 5.20801C10.945 5.20801 14.1015 8.39237 14.1015 12.3202Z" fill="currentColor"/>
        <path d="M21.836 12.3206C21.836 16.0178 20.2576 19.0161 18.3106 19.0161C16.3635 19.0161 14.7852 16.0178 14.7852 12.3206C14.7852 8.62337 16.3633 5.625 18.3104 5.625C20.2574 5.625 21.8358 8.62241 21.8358 12.3206" fill="currentColor"/>
        <path d="M24.9991 12.3204C24.9991 15.6322 24.4441 18.3186 23.7592 18.3186C23.0743 18.3186 22.5195 15.633 22.5195 12.3204C22.5195 9.00793 23.0746 6.32227 23.7592 6.32227C24.4438 6.32227 24.9991 9.00769 24.9991 12.3204Z" fill="currentColor"/>
    </symbol>
    <symbol id="reddit" viewBox="0 0 25 25" fill="none">
        <path fill-rule="evenodd" clip-rule="evenodd" d="M25 12.5C25 19.4036 19.4036 25 12.5 25C5.59644 25 0 19.4036 0 12.5C0 5.59644 5.59644 0 12.5 0C19.4036 0 25 5.59644 25 12.5ZM19.0059 10.6725C20.0146 10.6725 20.8333 11.4912 20.8333 12.5C20.8333 13.2456 20.3801 13.8889 19.7807 14.1813C19.8099 14.3567 19.8246 14.5321 19.8246 14.7222C19.8246 17.5292 16.5643 19.7953 12.5292 19.7953C8.49416 19.7953 5.23392 17.5292 5.23392 14.7222C5.23392 14.5321 5.24854 14.3421 5.27778 14.1666C4.63451 13.8742 4.19591 13.2456 4.19591 12.5C4.19591 11.4912 5.01463 10.6725 6.0234 10.6725C6.50585 10.6725 6.95907 10.8772 7.28071 11.1842C8.53802 10.2631 10.2778 9.69296 12.2222 9.63448L13.1433 5.27775C13.1725 5.19003 13.2164 5.11693 13.2895 5.07307C13.3626 5.02921 13.4503 5.0146 13.538 5.02922L16.5643 5.67249C16.769 5.23389 17.2076 4.94149 17.7193 4.94149C18.4357 4.94149 19.0205 5.52629 19.0205 6.24267C19.0205 6.95904 18.4357 7.54384 17.7193 7.54384C17.0176 7.54384 16.4474 6.98828 16.4181 6.30114L13.7135 5.73097L12.8801 9.63448C14.7807 9.70758 16.5059 10.2924 17.7485 11.1842C18.0702 10.8625 18.5088 10.6725 19.0059 10.6725ZM9.63451 12.5C8.91814 12.5 8.33334 13.0848 8.33334 13.8011C8.33334 14.5175 8.91814 15.1023 9.63451 15.1023C10.3509 15.1023 10.9357 14.5175 10.9357 13.8011C10.9357 13.0848 10.3509 12.5 9.63451 12.5ZM12.5146 18.1871C13.0117 18.1871 14.7076 18.1286 15.5994 17.2368C15.731 17.1052 15.731 16.9006 15.6287 16.7544C15.4971 16.6228 15.2778 16.6228 15.1462 16.7544C14.576 17.3099 13.3918 17.5146 12.5292 17.5146C11.6667 17.5146 10.4678 17.3099 9.91229 16.7544C9.78071 16.6228 9.56141 16.6228 9.42983 16.7544C9.29825 16.8859 9.29825 17.1052 9.42983 17.2368C10.307 18.114 12.0176 18.1871 12.5146 18.1871ZM14.0643 13.8011C14.0643 14.5175 14.6491 15.1023 15.3655 15.1023C16.0819 15.1023 16.6667 14.5175 16.6667 13.8011C16.6667 13.0848 16.0819 12.5 15.3655 12.5C14.6491 12.5 14.0643 13.0848 14.0643 13.8011Z" fill="currentColor"/>
    </symbol>
    <symbol id="telegram" viewBox="0 0 25 25" fill="none">
        <path fill-rule="evenodd" clip-rule="evenodd" d="M25 12.5C25 19.4036 19.4036 25 12.5 25C5.59644 25 0 19.4036 0 12.5C0 5.59644 5.59644 0 12.5 0C19.4036 0 25 5.59644 25 12.5ZM12.9479 9.22805C11.7321 9.73375 9.30223 10.7804 5.65822 12.368C5.06649 12.6034 4.75652 12.8336 4.7283 13.0587C4.68061 13.4391 5.15699 13.5889 5.8057 13.7928C5.89394 13.8206 5.98537 13.8493 6.0791 13.8798C6.71733 14.0873 7.57586 14.33 8.02217 14.3396C8.42702 14.3484 8.87888 14.1815 9.37775 13.8389C12.7825 11.5406 14.54 10.379 14.6503 10.3539C14.7282 10.3363 14.836 10.314 14.9091 10.379C14.9822 10.444 14.975 10.567 14.9673 10.6C14.9201 10.8012 13.0501 12.5397 12.0824 13.4394C11.7807 13.7198 11.5667 13.9188 11.523 13.9642C11.425 14.066 11.3251 14.1623 11.2291 14.2548C10.6362 14.8264 10.1916 15.255 11.2538 15.955C11.7642 16.2914 12.1726 16.5695 12.5801 16.847C13.0252 17.1501 13.469 17.4523 14.0433 17.8288C14.1897 17.9247 14.3294 18.0244 14.4655 18.1214C14.9834 18.4906 15.4487 18.8223 16.0235 18.7694C16.3575 18.7387 16.7026 18.4246 16.8778 17.4879C17.2919 15.2741 18.1059 10.4776 18.294 8.50101C18.3105 8.32784 18.2897 8.10622 18.2731 8.00893C18.2564 7.91164 18.2216 7.77303 18.0952 7.67042C17.9454 7.54889 17.7142 7.52327 17.6108 7.52509C17.1406 7.53337 16.4193 7.78418 12.9479 9.22805Z" fill="currentColor"/>
    </symbol>
    <symbol id="tiktok" viewBox="0 0 22 24" fill="none">
        <path opacity="0.2" d="M16.1754 0H11.8347V16.3478C11.8347 18.2957 10.1653 19.8957 8.0877 19.8957C6.01012 19.8957 4.34064 18.2957 4.34064 16.3478C4.34064 14.4348 5.97302 12.8695 7.97642 12.8V8.69567C3.56155 8.7652 0 12.1391 0 16.3478C0 20.5913 3.63575 24 8.12481 24C12.6138 24 16.2496 20.5565 16.2496 16.3478V7.9652C17.882 9.07827 19.8853 9.73913 22 9.77393V5.66957C18.7353 5.56522 16.1754 3.06087 16.1754 0Z" fill="currentColor"/>
    </symbol>
    <symbol id="twitter" viewBox="0 0 25 21" fill="none">
        <path d="M7.86475 20.656C17.2964 20.656 22.4565 12.8401 22.4565 6.06422C22.4565 6.00981 22.4562 5.9551 22.4556 5.90024C22.4522 5.58799 22.5961 5.29229 22.8401 5.09736C23.3353 4.70165 23.793 4.2619 24.2076 3.7838C24.456 3.49733 24.1376 3.08967 23.7742 3.19784V3.19784C23.3838 3.31405 23.122 2.72496 23.3813 2.41084C23.5092 2.25597 23.628 2.09368 23.7371 1.92477C23.991 1.53148 23.5445 1.13775 23.1142 1.32206C22.6386 1.52576 22.148 1.69351 21.6465 1.82373C21.2815 1.91852 20.9042 1.78513 20.6152 1.54283C19.9114 0.952826 19.0591 0.559827 18.1455 0.410256C17.0316 0.227896 15.8887 0.417547 14.8935 0.949887C13.8982 1.48223 13.106 2.3276 12.6394 3.35532V3.35532C11.9439 4.8872 10.6259 6.55021 9.00923 6.08446C8.13165 5.83162 7.27742 5.49614 6.45831 5.08114C5.79248 4.74379 5.15528 4.35665 4.55183 3.92382C3.03317 2.83457 0.760197 3.19595 1.18232 5.01655V5.01655C1.35245 5.75031 1.68016 6.43079 2.13543 7.01457C2.42526 7.3862 2.17142 7.97684 1.72881 7.81497C1.50019 7.73137 1.27719 7.63138 1.06159 7.51552C1.03648 7.50203 1.00586 7.52009 1.00586 7.5486V7.5486C1.00513 8.73328 1.41469 9.88165 2.16491 10.7985C2.55972 11.281 3.03605 11.6837 3.56803 11.9911C3.92899 12.1996 3.88686 12.7744 3.47074 12.7495V12.7495C3.17057 12.7315 2.92414 13.0152 3.05257 13.2871C3.41119 14.0463 3.95201 14.7093 4.63101 15.2147V15.2147C5.4883 15.8528 5.83078 17.4091 4.8292 17.7817C3.68413 18.2078 2.46435 18.4295 1.22559 18.4275V18.4275C0.927098 18.427 0.79697 18.8319 1.0609 18.9713C3.15219 20.076 5.48728 20.6573 7.86475 20.656Z" fill="currentColor"/>
    </symbol>
</svg>