<svg width="14" height="14" viewBox="0 0 14 14" fill="none" xmlns="http://www.w3.org/2000/svg">
<path d="M13 8.52695C11.9565 8.81955 10.854 8.82914 9.80562 8.55473C8.75724 8.28032 7.80078 7.73181 7.03449 6.96551C6.26819 6.19922 5.71968 5.24276 5.44527 4.19438C5.17086 3.14599 5.18045 2.04346 5.47305 1C4.4443 1.28634 3.50852 1.83721 2.75892 2.59776C2.00933 3.3583 1.47208 4.30196 1.20068 5.33476C0.929289 6.36755 0.933225 7.45343 1.2121 8.48423C1.49097 9.51503 2.03505 10.4548 2.79014 11.2099C3.54523 11.965 4.48497 12.509 5.51577 12.7879C6.54657 13.0668 7.63245 13.0707 8.66524 12.7993C9.69804 12.5279 10.6417 11.9907 11.4022 11.2411C12.1628 10.4915 12.7137 9.5557 13 8.52695Z" stroke="white" stroke-width="1.5" stroke-linecap="round" stroke-linejoin="round"/>
</svg>
