<svg width="21" height="21" viewBox="0 0 21 21" color="white" fill="none" xmlns="http://www.w3.org/2000/svg">
<g opacity="0.3">
<path fill="#FFFFFF" d="M10.2301 12.9545C11.5828 12.9545 12.6794 11.8556 12.6794 10.5C12.6794 9.14435 11.5828 8.04541 10.2301 8.04541C8.87737 8.04541 7.78076 9.14435 7.78076 10.5C7.78076 11.8556 8.87737 12.9545 10.2301 12.9545Z" stroke="white" stroke-width="2" stroke-linecap="round" stroke-linejoin="round"/>
<path fill="#FFFFFF" d="M16.2718 12.9545C16.1631 13.2013 16.1307 13.4751 16.1787 13.7405C16.2267 14.0059 16.353 14.2508 16.5412 14.4436L16.5902 14.4927C16.742 14.6447 16.8625 14.8252 16.9446 15.0238C17.0268 15.2225 17.0691 15.4354 17.0691 15.6505C17.0691 15.8655 17.0268 16.0784 16.9446 16.2771C16.8625 16.4757 16.742 16.6562 16.5902 16.8082C16.4386 16.9603 16.2585 17.081 16.0602 17.1634C15.862 17.2457 15.6495 17.2881 15.435 17.2881C15.2204 17.2881 15.0079 17.2457 14.8097 17.1634C14.6114 17.081 14.4314 16.9603 14.2797 16.8082L14.2307 16.7591C14.0383 16.5705 13.7939 16.4439 13.5291 16.3958C13.2642 16.3477 12.9911 16.3802 12.7448 16.4891C12.5033 16.5928 12.2974 16.765 12.1523 16.9845C12.0073 17.204 11.9294 17.4613 11.9284 17.7245V17.8636C11.9284 18.2976 11.7564 18.7138 11.4501 19.0207C11.1439 19.3276 10.7286 19.5 10.2955 19.5C9.86248 19.5 9.44715 19.3276 9.14093 19.0207C8.83471 18.7138 8.66268 18.2976 8.66268 17.8636V17.79C8.65636 17.5192 8.56889 17.2565 8.41164 17.0362C8.25439 16.8159 8.03463 16.6481 7.78094 16.5545C7.53469 16.4456 7.26153 16.4131 6.99669 16.4613C6.73184 16.5094 6.48745 16.6359 6.29504 16.8245L6.24605 16.8736C6.09441 17.0258 5.91432 17.1465 5.71609 17.2288C5.51787 17.3112 5.30539 17.3536 5.09081 17.3536C4.87622 17.3536 4.66375 17.3112 4.46552 17.2288C4.2673 17.1465 4.08721 17.0258 3.93556 16.8736C3.78374 16.7217 3.66331 16.5412 3.58113 16.3425C3.49896 16.1439 3.45667 15.931 3.45667 15.7159C3.45667 15.5009 3.49896 15.2879 3.58113 15.0893C3.66331 14.8906 3.78374 14.7102 3.93556 14.5582L3.98455 14.5091C4.17276 14.3163 4.29902 14.0714 4.34704 13.8059C4.39507 13.5405 4.36265 13.2668 4.25397 13.02C4.15048 12.778 3.97863 12.5716 3.75959 12.4263C3.54055 12.2809 3.28388 12.2029 3.02116 12.2018H2.88237C2.44931 12.2018 2.03398 12.0294 1.72776 11.7225C1.42154 11.4157 1.24951 10.9994 1.24951 10.5655C1.24951 10.1315 1.42154 9.71525 1.72776 9.40837C2.03398 9.10149 2.44931 8.92909 2.88237 8.92909H2.95585C3.22608 8.92276 3.48816 8.8351 3.70802 8.67751C3.92788 8.51992 4.09535 8.29969 4.18865 8.04545C4.29733 7.79868 4.32975 7.52493 4.28173 7.25952C4.23371 6.9941 4.10745 6.74919 3.91923 6.55636L3.87025 6.50727C3.71843 6.3553 3.59799 6.17483 3.51582 5.97617C3.43365 5.77752 3.39135 5.56459 3.39135 5.34955C3.39135 5.1345 3.43365 4.92157 3.51582 4.72292C3.59799 4.52426 3.71843 4.34379 3.87025 4.19182C4.0219 4.03967 4.20198 3.91898 4.40021 3.83663C4.59843 3.75428 4.81091 3.71189 5.02549 3.71189C5.24008 3.71189 5.45255 3.75428 5.65078 3.83663C5.84901 3.91898 6.02909 4.03967 6.18074 4.19182L6.22973 4.24091C6.42214 4.42953 6.66653 4.55606 6.93137 4.60419C7.19622 4.65231 7.46938 4.61982 7.71562 4.51091H7.78094C8.02241 4.40719 8.22836 4.23498 8.37342 4.01547C8.51847 3.79596 8.59632 3.53873 8.59737 3.27545V3.13636C8.59737 2.70237 8.7694 2.28616 9.07562 1.97928C9.38184 1.6724 9.79716 1.5 10.2302 1.5C10.6633 1.5 11.0786 1.6724 11.3848 1.97928C11.691 2.28616 11.8631 2.70237 11.8631 3.13636V3.21C11.8641 3.47328 11.942 3.73051 12.087 3.95002C12.2321 4.16953 12.438 4.34174 12.6795 4.44545C12.9258 4.55437 13.1989 4.58686 13.4638 4.53873C13.7286 4.49061 13.973 4.36408 14.1654 4.17545L14.2144 4.12636C14.366 3.97422 14.5461 3.85352 14.7444 3.77118C14.9426 3.68883 15.1551 3.64644 15.3696 3.64644C15.5842 3.64644 15.7967 3.68883 15.9949 3.77118C16.1932 3.85352 16.3732 3.97422 16.5249 4.12636C16.6767 4.27834 16.7971 4.45881 16.8793 4.65746C16.9615 4.85611 17.0038 5.06905 17.0038 5.28409C17.0038 5.49913 16.9615 5.71207 16.8793 5.91072C16.7971 6.10937 16.6767 6.28984 16.5249 6.44182L16.4759 6.49091C16.2877 6.68374 16.1614 6.92865 16.1134 7.19406C16.0654 7.45948 16.0978 7.73322 16.2065 7.98V8.04545C16.31 8.28745 16.4818 8.49383 16.7009 8.6392C16.9199 8.78457 17.1766 8.86259 17.4393 8.86364H17.5781C18.0111 8.86364 18.4265 9.03604 18.7327 9.34292C19.0389 9.64979 19.2109 10.066 19.2109 10.5C19.2109 10.934 19.0389 11.3502 18.7327 11.6571C18.4265 11.964 18.0111 12.1364 17.5781 12.1364H17.5046C17.2419 12.1374 16.9852 12.2154 16.7662 12.3608C16.5471 12.5062 16.3753 12.7126 16.2718 12.9545V12.9545Z" stroke="white" stroke-width="2" stroke-linecap="round" stroke-linejoin="round"/>
</g>
</svg>
