<svg width="285" height="232" viewBox="0 0 285 232" fill="none" xmlns="http://www.w3.org/2000/svg">
  <path opacity="0.2" d="M89.6581 232C197.179 232 256.005 142.733 256.005 65.3454C256.005 62.8358 255.949 60.2706 255.838 57.761C267.281 49.47 277.156 39.2004 285 27.4348C274.342 32.1853 263.027 35.2879 251.44 36.6364C263.64 29.3099 272.775 17.8003 277.151 4.24127C265.674 11.0558 253.122 15.8628 240.035 18.4563C231.216 9.069 219.557 2.85348 206.859 0.770728C194.161 -1.31202 181.132 0.854 169.786 6.93391C158.44 13.0138 149.409 22.669 144.089 34.4066C138.77 46.1443 137.458 59.3107 140.357 71.8701C117.117 70.7017 94.3817 64.6535 73.6248 54.1174C52.8678 43.5814 34.5526 28.7927 19.8665 10.7103C12.4022 23.6034 10.1182 38.8601 13.4785 53.3797C16.8388 67.8994 25.5914 80.5924 37.9573 88.8791C28.6737 88.5838 19.5935 86.0797 11.4668 81.5736V82.2986C11.4585 95.8289 16.1274 108.945 24.6799 119.416C33.2324 129.888 45.1407 137.069 58.3805 139.739C49.7807 142.096 40.7548 142.44 32.0013 140.743C35.7373 152.379 43.0062 162.556 52.7935 169.854C62.5809 177.152 74.3983 181.207 86.5966 181.453C65.8875 197.75 40.3058 206.59 13.9717 206.548C9.30153 206.541 4.63599 206.254 0 205.689C26.7527 222.884 57.8732 232.017 89.6581 232Z" fill="url(#paint0_linear_2440_3513)"/>
  <defs>
    <linearGradient id="paint0_linear_2440_3513" x1="-296" y1="-389" x2="96.5" y2="232" gradientUnits="userSpaceOnUse">
      <stop stop-color="white"/>
      <stop offset="1" stop-color="white" stop-opacity="0"/>
    </linearGradient>
  </defs>
</svg>
